<?xml version="1.0" encoding="UTF-8" standalone="no"?>
<!DOCTYPE svg PUBLIC "-//W3C//DTD SVG 1.1//EN"
 "http://www.w3.org/Graphics/SVG/1.1/DTD/svg11.dtd">
<!-- Generated by graphviz version 2.43.0 (0)
 -->
<!-- Title: pointer_equality_visitort Pages: 1 -->
<svg width="1752pt" height="130pt"
 viewBox="0.00 0.00 1752.00 129.50" xmlns="http://www.w3.org/2000/svg" xmlns:xlink="http://www.w3.org/1999/xlink">
<g id="graph0" class="graph" transform="scale(1 1) rotate(0) translate(4 125.5)">
<title>pointer_equality_visitort</title>
<!-- Node1 -->
<g id="Node000001" class="node">
<title>Node1</title>
<g id="a_Node000001"><a xlink:title=" ">
<polygon fill="#999999" stroke="#666666" points="1744,-46.5 1608,-46.5 1608,-27.5 1744,-27.5 1744,-46.5"/>
<text text-anchor="middle" x="1676" y="-34.5" font-family="Helvetica,sans-Serif" font-size="10.00">pointer_equality_visitort</text>
</a>
</g>
</g>
<!-- Node2 -->
<g id="Node000002" class="node">
<title>Node2</title>
<g id="a_Node000002"><a xlink:href="classexpr__visitort.html" target="_top" xlink:title=" ">
<polygon fill="white" stroke="#666666" points="1404.5,-64.5 1326.5,-64.5 1326.5,-45.5 1404.5,-45.5 1404.5,-64.5"/>
<text text-anchor="middle" x="1365.5" y="-52.5" font-family="Helvetica,sans-Serif" font-size="10.00">expr_visitort</text>
</a>
</g>
</g>
<!-- Node2&#45;&gt;Node1 -->
<g id="edge1_Node000001_Node000002" class="edge">
<title>Node2&#45;&gt;Node1</title>
<g id="a_edge1_Node000001_Node000002"><a xlink:title=" ">
<path fill="none" stroke="#63b8ff" d="M1414.92,-52.17C1466.88,-49.14 1549.77,-44.31 1607.98,-40.91"/>
<polygon fill="#63b8ff" stroke="#63b8ff" points="1414.42,-48.7 1404.64,-52.77 1414.82,-55.69 1414.42,-48.7"/>
</a>
</g>
</g>
<!-- Node3 -->
<g id="Node000003" class="node">
<title>Node3</title>
<g id="a_Node000003"><a xlink:title=" ">
<polygon fill="white" stroke="#666666" points="1428,-27.5 1303,-27.5 1303,-8.5 1428,-8.5 1428,-27.5"/>
<text text-anchor="middle" x="1365.5" y="-15.5" font-family="Helvetica,sans-Serif" font-size="10.00">std::vector&lt; exprt * &gt;</text>
</a>
</g>
</g>
<!-- Node3&#45;&gt;Node1 -->
<g id="edge2_Node000001_Node000003" class="edge">
<title>Node3&#45;&gt;Node1</title>
<g id="a_edge2_Node000001_Node000003"><a xlink:title=" ">
<path fill="none" stroke="#9a32cd" stroke-dasharray="5,2" d="M1438.24,-19.49C1482.12,-20.75 1539.36,-23.01 1590,-27 1595.78,-27.46 1601.77,-28 1607.77,-28.61"/>
<polygon fill="#9a32cd" stroke="#9a32cd" points="1438.33,-15.99 1428.24,-19.21 1438.14,-22.99 1438.33,-15.99"/>
</a>
</g>
<text text-anchor="middle" x="1518" y="-30" font-family="Helvetica,sans-Serif" font-size="10.00" fill="grey"> equality_exprs_to_transform</text>
</g>
<!-- Node4 -->
<g id="Node000004" class="node">
<title>Node4</title>
<g id="a_Node000004"><a xlink:href="classexprt.html" target="_top" xlink:title="Base class for all expressions.">
<polygon fill="white" stroke="#666666" points="1218,-49.5 1176,-49.5 1176,-30.5 1218,-30.5 1218,-49.5"/>
<text text-anchor="middle" x="1197" y="-37.5" font-family="Helvetica,sans-Serif" font-size="10.00">exprt</text>
</a>
</g>
</g>
<!-- Node4&#45;&gt;Node3 -->
<g id="edge3_Node000003_Node000004" class="edge">
<title>Node4&#45;&gt;Node3</title>
<g id="a_edge3_Node000003_Node000004"><a xlink:title=" ">
<path fill="none" stroke="#9a32cd" stroke-dasharray="5,2" d="M1228.2,-36.01C1248.98,-33.26 1277.31,-29.52 1302.75,-26.16"/>
<polygon fill="#9a32cd" stroke="#9a32cd" points="1227.54,-32.57 1218.08,-37.35 1228.46,-39.51 1227.54,-32.57"/>
</a>
</g>
<text text-anchor="middle" x="1260.5" y="-37" font-family="Helvetica,sans-Serif" font-size="10.00" fill="grey"> elements</text>
</g>
<!-- Node5 -->
<g id="Node000005" class="node">
<title>Node5</title>
<g id="a_Node000005"><a xlink:href="classirept.html" target="_top" xlink:title="There are a large number of kinds of tree structured or tree&#45;like data in CPROVER.">
<polygon fill="white" stroke="#666666" points="1139,-52.5 1100,-52.5 1100,-33.5 1139,-33.5 1139,-52.5"/>
<text text-anchor="middle" x="1119.5" y="-40.5" font-family="Helvetica,sans-Serif" font-size="10.00">irept</text>
</a>
</g>
</g>
<!-- Node5&#45;&gt;Node4 -->
<g id="edge4_Node000004_Node000005" class="edge">
<title>Node5&#45;&gt;Node4</title>
<g id="a_edge4_Node000004_Node000005"><a xlink:title=" ">
<path fill="none" stroke="#63b8ff" d="M1149.18,-41.86C1158.11,-41.51 1167.76,-41.12 1175.97,-40.8"/>
<polygon fill="#63b8ff" stroke="#63b8ff" points="1149.02,-38.36 1139.16,-42.26 1149.29,-45.36 1149.02,-38.36"/>
</a>
</g>
</g>
<!-- Node6 -->
<g id="Node000006" class="node">
<title>Node6</title>
<g id="a_Node000006"><a xlink:href="classsharing__treet.html" target="_top" xlink:title=" ">
<polygon fill="white" stroke="#666666" points="1063,-69.5 938,-69.5 938,-28.5 1063,-28.5 1063,-69.5"/>
<text text-anchor="start" x="946" y="-57.5" font-family="Helvetica,sans-Serif" font-size="10.00">sharing_treet&lt; irept,</text>
<text text-anchor="start" x="946" y="-46.5" font-family="Helvetica,sans-Serif" font-size="10.00"> forward_list_as_mapt</text>
<text text-anchor="middle" x="1000.5" y="-35.5" font-family="Helvetica,sans-Serif" font-size="10.00">&lt; irep_idt, irept &gt; &gt;</text>
</a>
</g>
</g>
<!-- Node6&#45;&gt;Node5 -->
<g id="edge5_Node000005_Node000006" class="edge">
<title>Node6&#45;&gt;Node5</title>
<g id="a_edge5_Node000005_Node000006"><a xlink:title=" ">
<path fill="none" stroke="#63b8ff" d="M1073.07,-45.33C1082.93,-44.82 1092.27,-44.35 1099.89,-43.95"/>
<polygon fill="#63b8ff" stroke="#63b8ff" points="1072.89,-41.83 1063.08,-45.84 1073.25,-48.83 1072.89,-41.83"/>
</a>
</g>
</g>
<!-- Node7 -->
<g id="Node000007" class="node">
<title>Node7</title>
<g id="a_Node000007"><a xlink:href="classtree__nodet.html" target="_top" xlink:title="A node with data in a tree, it contains:">
<polygon fill="white" stroke="#666666" points="540,-90 382,-90 382,-60 540,-60 540,-90"/>
<text text-anchor="start" x="390" y="-78" font-family="Helvetica,sans-Serif" font-size="10.00">tree_nodet&lt; treet,</text>
<text text-anchor="middle" x="461" y="-67" font-family="Helvetica,sans-Serif" font-size="10.00"> named_subtreest, sharing &gt;</text>
</a>
</g>
</g>
<!-- Node7&#45;&gt;Node6 -->
<g id="edge6_Node000006_Node000007" class="edge">
<title>Node7&#45;&gt;Node6</title>
<g id="a_edge6_Node000006_Node000007"><a xlink:title=" ">
<path fill="none" stroke="#9a32cd" stroke-dasharray="5,2" d="M550.23,-82.64C552.85,-82.77 555.44,-82.89 558,-83 577.09,-83.79 581.89,-83.27 601,-83 742.82,-81 780.13,-97.5 920,-74 926.71,-72.87 933.63,-71.32 940.46,-69.53"/>
<polygon fill="#9a32cd" stroke="#9a32cd" points="550.22,-79.13 540.03,-82.05 549.81,-86.12 550.22,-79.13"/>
</a>
</g>
<text text-anchor="middle" x="687" y="-100" font-family="Helvetica,sans-Serif" font-size="10.00" fill="grey"> data</text>
<text text-anchor="middle" x="687" y="-89" font-family="Helvetica,sans-Serif" font-size="10.00" fill="grey">empty_d</text>
</g>
<!-- Node13 -->
<g id="Node000013" class="node">
<title>Node13</title>
<g id="a_Node000013"><a xlink:href="classsharing__treet.html" target="_top" xlink:title="Base class for tree&#45;like data structures with sharing.">
<polygon fill="white" stroke="#666666" points="755,-61 619,-61 619,-31 755,-31 755,-61"/>
<text text-anchor="start" x="627" y="-49" font-family="Helvetica,sans-Serif" font-size="10.00">sharing_treet&lt; derivedt,</text>
<text text-anchor="middle" x="687" y="-38" font-family="Helvetica,sans-Serif" font-size="10.00"> named_subtreest &gt;</text>
</a>
</g>
</g>
<!-- Node7&#45;&gt;Node13 -->
<g id="edge12_Node000013_Node000007" class="edge">
<title>Node7&#45;&gt;Node13</title>
<g id="a_edge12_Node000013_Node000007"><a xlink:title=" ">
<path fill="none" stroke="#9a32cd" stroke-dasharray="5,2" d="M549.95,-62.07C552.66,-61.71 555.35,-61.35 558,-61 577.74,-58.4 599.23,-55.8 618.86,-53.51"/>
<polygon fill="#9a32cd" stroke="#9a32cd" points="549.47,-58.61 540.04,-63.43 550.42,-65.54 549.47,-58.61"/>
</a>
</g>
<text text-anchor="middle" x="579.5" y="-75" font-family="Helvetica,sans-Serif" font-size="10.00" fill="grey"> data</text>
<text text-anchor="middle" x="579.5" y="-64" font-family="Helvetica,sans-Serif" font-size="10.00" fill="grey">empty_d</text>
</g>
<!-- Node8 -->
<g id="Node000008" class="node">
<title>Node8</title>
<g id="a_Node000008"><a xlink:href="structref__count__ift.html" target="_top" xlink:title="Used in tree_nodet for activating or not reference counting.">
<polygon fill="white" stroke="#666666" points="321,-84.5 182,-84.5 182,-65.5 321,-65.5 321,-84.5"/>
<text text-anchor="middle" x="251.5" y="-72.5" font-family="Helvetica,sans-Serif" font-size="10.00">ref_count_ift&lt; enabled &gt;</text>
</a>
</g>
</g>
<!-- Node8&#45;&gt;Node7 -->
<g id="edge7_Node000007_Node000008" class="edge">
<title>Node8&#45;&gt;Node7</title>
<g id="a_edge7_Node000007_Node000008"><a xlink:title=" ">
<path fill="none" stroke="#63b8ff" d="M331.21,-75C347.8,-75 365.29,-75 381.86,-75"/>
<polygon fill="#63b8ff" stroke="#63b8ff" points="331.02,-71.5 321.02,-75 331.02,-78.5 331.02,-71.5"/>
</a>
</g>
</g>
<!-- Node9 -->
<g id="Node000009" class="node">
<title>Node9</title>
<g id="a_Node000009"><a xlink:href="classdstringt.html" target="_top" xlink:title="dstringt has one field, an unsigned integer no which is an index into a static table of strings.">
<polygon fill="white" stroke="#666666" points="278.5,-47.5 224.5,-47.5 224.5,-28.5 278.5,-28.5 278.5,-47.5"/>
<text text-anchor="middle" x="251.5" y="-35.5" font-family="Helvetica,sans-Serif" font-size="10.00">dstringt</text>
</a>
</g>
</g>
<!-- Node9&#45;&gt;Node7 -->
<g id="edge8_Node000007_Node000009" class="edge">
<title>Node9&#45;&gt;Node7</title>
<g id="a_edge8_Node000007_Node000009"><a xlink:title=" ">
<path fill="none" stroke="#9a32cd" stroke-dasharray="5,2" d="M288.79,-44.47C314.43,-49.04 349.77,-55.34 381.69,-61.04"/>
<polygon fill="#9a32cd" stroke="#9a32cd" points="289.24,-41 278.78,-42.69 288.01,-47.89 289.24,-41"/>
</a>
</g>
<text text-anchor="middle" x="351.5" y="-60" font-family="Helvetica,sans-Serif" font-size="10.00" fill="grey"> data</text>
</g>
<!-- Node10 -->
<g id="Node000010" class="node">
<title>Node10</title>
<g id="a_Node000010"><a xlink:title=" ">
<polygon fill="white" stroke="#666666" points="308.5,-121.5 194.5,-121.5 194.5,-102.5 308.5,-102.5 308.5,-121.5"/>
<text text-anchor="middle" x="251.5" y="-109.5" font-family="Helvetica,sans-Serif" font-size="10.00">std::vector&lt; treet &gt;</text>
</a>
</g>
</g>
<!-- Node10&#45;&gt;Node7 -->
<g id="edge9_Node000007_Node000010" class="edge">
<title>Node10&#45;&gt;Node7</title>
<g id="a_edge9_Node000007_Node000010"><a xlink:title=" ">
<path fill="none" stroke="#9a32cd" stroke-dasharray="5,2" d="M315.9,-100.69C336.66,-96.99 359.98,-92.84 381.7,-88.96"/>
<polygon fill="#9a32cd" stroke="#9a32cd" points="315.17,-97.27 305.94,-102.47 316.4,-104.16 315.17,-97.27"/>
</a>
</g>
<text text-anchor="middle" x="351.5" y="-98" font-family="Helvetica,sans-Serif" font-size="10.00" fill="grey"> sub</text>
</g>
<!-- Node11 -->
<g id="Node000011" class="node">
<title>Node11</title>
<g id="a_Node000011"><a xlink:title=" ">
<polygon fill="#fff0f0" stroke="red" points="97,-25.5 0,-25.5 0,-6.5 97,-6.5 97,-25.5"/>
<text text-anchor="middle" x="48.5" y="-13.5" font-family="Helvetica,sans-Serif" font-size="10.00">std::vector&lt; T &gt;</text>
</a>
</g>
</g>
<!-- Node11&#45;&gt;Node3 -->
<g id="edge13_Node000003_Node000011" class="edge">
<title>Node11&#45;&gt;Node3</title>
<g id="a_edge13_Node000003_Node000011"><a xlink:title=" ">
<path fill="none" stroke="orange" stroke-dasharray="5,2" d="M107.47,-8.93C147.57,-4.65 202.2,0 250.5,0 250.5,0 250.5,0 1198,0 1233.76,0 1273.6,-4.16 1305.33,-8.47"/>
<polygon fill="orange" stroke="orange" points="106.9,-5.48 97.34,-10.04 107.66,-12.43 106.9,-5.48"/>
</a>
</g>
<text text-anchor="middle" x="846.5" y="-3" font-family="Helvetica,sans-Serif" font-size="10.00" fill="grey"> &lt; exprt * &gt;</text>
</g>
<!-- Node11&#45;&gt;Node10 -->
<g id="edge10_Node000010_Node000011" class="edge">
<title>Node11&#45;&gt;Node10</title>
<g id="a_edge10_Node000010_Node000011"><a xlink:title=" ">
<path fill="none" stroke="orange" stroke-dasharray="5,2" d="M71.29,-31.38C96.77,-48.75 140.74,-76.82 182,-94 189.83,-97.26 198.42,-100.07 206.78,-102.44"/>
<polygon fill="orange" stroke="orange" points="72.99,-28.3 62.77,-25.5 69.02,-34.06 72.99,-28.3"/>
</a>
</g>
<text text-anchor="middle" x="139.5" y="-88" font-family="Helvetica,sans-Serif" font-size="10.00" fill="grey"> &lt; treet &gt;</text>
</g>
<!-- Node13&#45;&gt;Node6 -->
<g id="edge11_Node000006_Node000013" class="edge">
<title>Node13&#45;&gt;Node6</title>
<g id="a_edge11_Node000006_Node000013"><a xlink:title=" ">
<path fill="none" stroke="orange" stroke-dasharray="5,2" d="M765.29,-46.74C818.58,-47.26 888.45,-47.93 937.96,-48.41"/>
<polygon fill="orange" stroke="orange" points="765.24,-43.24 755.21,-46.65 765.17,-50.24 765.24,-43.24"/>
</a>
</g>
<text text-anchor="start" x="773" y="-62" font-family="Helvetica,sans-Serif" font-size="10.00" fill="grey"> &lt; irept, forward_list</text>
<text text-anchor="middle" x="846.5" y="-51" font-family="Helvetica,sans-Serif" font-size="10.00" fill="grey">_as_mapt&lt; irep_idt, irept &gt; &gt;</text>
</g>
</g>
</svg>
