<?xml version="1.0" encoding="UTF-8" standalone="no"?>
<!DOCTYPE svg PUBLIC "-//W3C//DTD SVG 1.1//EN"
 "http://www.w3.org/Graphics/SVG/1.1/DTD/svg11.dtd">
<!-- Generated by graphviz version 2.43.0 (0)
 -->
<!-- Title: /home/runner/work/cbmc/cbmc/src/goto&#45;instrument/contracts/dynamic&#45;frames/dfcc_cfg_info.h Pages: 1 -->
<svg width="1318pt" height="148pt"
 viewBox="0.00 0.00 1318.00 148.00" xmlns="http://www.w3.org/2000/svg" xmlns:xlink="http://www.w3.org/1999/xlink">
<g id="graph0" class="graph" transform="scale(1 1) rotate(0) translate(4 144)">
<title>/home/runner/work/cbmc/cbmc/src/goto&#45;instrument/contracts/dynamic&#45;frames/dfcc_cfg_info.h</title>
<!-- Node1 -->
<g id="Node000001" class="node">
<title>Node1</title>
<g id="a_Node000001"><a xlink:title="Class that computes CFG information about the loop structure of a GOTO function for the purpose of dy...">
<polygon fill="#999999" stroke="#666666" points="729,-140 581,-140 581,-88 729,-88 729,-140"/>
<text text-anchor="start" x="589" y="-128" font-family="Helvetica,sans-Serif" font-size="10.00">/home/runner/work/cbmc</text>
<text text-anchor="start" x="589" y="-117" font-family="Helvetica,sans-Serif" font-size="10.00">/cbmc/src/goto&#45;instrument</text>
<text text-anchor="start" x="589" y="-106" font-family="Helvetica,sans-Serif" font-size="10.00">/contracts/dynamic&#45;frames</text>
<text text-anchor="middle" x="655" y="-95" font-family="Helvetica,sans-Serif" font-size="10.00">/dfcc_cfg_info.h</text>
</a>
</g>
</g>
<!-- Node2 -->
<g id="Node000002" class="node">
<title>Node2</title>
<g id="a_Node000002"><a xlink:href="dfcc__cfg__info_8cpp.html" target="_top" xlink:title=" ">
<polygon fill="white" stroke="#666666" points="148,-52 0,-52 0,0 148,0 148,-52"/>
<text text-anchor="start" x="8" y="-40" font-family="Helvetica,sans-Serif" font-size="10.00">/home/runner/work/cbmc</text>
<text text-anchor="start" x="8" y="-29" font-family="Helvetica,sans-Serif" font-size="10.00">/cbmc/src/goto&#45;instrument</text>
<text text-anchor="start" x="8" y="-18" font-family="Helvetica,sans-Serif" font-size="10.00">/contracts/dynamic&#45;frames</text>
<text text-anchor="middle" x="74" y="-7" font-family="Helvetica,sans-Serif" font-size="10.00">/dfcc_cfg_info.cpp</text>
</a>
</g>
</g>
<!-- Node1&#45;&gt;Node2 -->
<g id="edge1_Node000001_Node000002" class="edge">
<title>Node1&#45;&gt;Node2</title>
<g id="a_edge1_Node000001_Node000002"><a xlink:title=" ">
<path fill="none" stroke="#63b8ff" d="M570.94,-107.11C471.35,-99.11 300.81,-82.23 157,-52 154.05,-51.38 151.06,-50.71 148.05,-49.99"/>
<polygon fill="#63b8ff" stroke="#63b8ff" points="570.7,-110.6 580.94,-107.9 571.25,-103.62 570.7,-110.6"/>
</a>
</g>
</g>
<!-- Node3 -->
<g id="Node000003" class="node">
<title>Node3</title>
<g id="a_Node000003"><a xlink:href="dfcc__instrument_8cpp.html" target="_top" xlink:title=" ">
<polygon fill="white" stroke="#666666" points="314,-52 166,-52 166,0 314,0 314,-52"/>
<text text-anchor="start" x="174" y="-40" font-family="Helvetica,sans-Serif" font-size="10.00">/home/runner/work/cbmc</text>
<text text-anchor="start" x="174" y="-29" font-family="Helvetica,sans-Serif" font-size="10.00">/cbmc/src/goto&#45;instrument</text>
<text text-anchor="start" x="174" y="-18" font-family="Helvetica,sans-Serif" font-size="10.00">/contracts/dynamic&#45;frames</text>
<text text-anchor="middle" x="240" y="-7" font-family="Helvetica,sans-Serif" font-size="10.00">/dfcc_instrument.cpp</text>
</a>
</g>
</g>
<!-- Node1&#45;&gt;Node3 -->
<g id="edge2_Node000001_Node000003" class="edge">
<title>Node1&#45;&gt;Node3</title>
<g id="a_edge2_Node000001_Node000003"><a xlink:title=" ">
<path fill="none" stroke="#63b8ff" d="M570.84,-100.19C503.4,-89.28 406.58,-72.2 323,-52 320.07,-51.29 317.1,-50.54 314.1,-49.76"/>
<polygon fill="#63b8ff" stroke="#63b8ff" points="570.56,-103.68 580.99,-101.81 571.67,-96.77 570.56,-103.68"/>
</a>
</g>
</g>
<!-- Node4 -->
<g id="Node000004" class="node">
<title>Node4</title>
<g id="a_Node000004"><a xlink:href="dfcc__instrument__loop_8cpp.html" target="_top" xlink:title=" ">
<polygon fill="white" stroke="#666666" points="480,-52 332,-52 332,0 480,0 480,-52"/>
<text text-anchor="start" x="340" y="-40" font-family="Helvetica,sans-Serif" font-size="10.00">/home/runner/work/cbmc</text>
<text text-anchor="start" x="340" y="-29" font-family="Helvetica,sans-Serif" font-size="10.00">/cbmc/src/goto&#45;instrument</text>
<text text-anchor="start" x="340" y="-18" font-family="Helvetica,sans-Serif" font-size="10.00">/contracts/dynamic&#45;frames</text>
<text text-anchor="middle" x="406" y="-7" font-family="Helvetica,sans-Serif" font-size="10.00">/dfcc_instrument_loop.cpp</text>
</a>
</g>
</g>
<!-- Node1&#45;&gt;Node4 -->
<g id="edge3_Node000001_Node000004" class="edge">
<title>Node1&#45;&gt;Node4</title>
<g id="a_edge3_Node000001_Node000004"><a xlink:title=" ">
<path fill="none" stroke="#63b8ff" d="M572.61,-84.54C542.29,-74.07 508.19,-62.3 478.78,-52.14"/>
<polygon fill="#63b8ff" stroke="#63b8ff" points="571.71,-87.94 582.31,-87.89 574,-81.32 571.71,-87.94"/>
</a>
</g>
</g>
<!-- Node5 -->
<g id="Node000005" class="node">
<title>Node5</title>
<g id="a_Node000005"><a xlink:href="dfcc__is__freeable_8cpp.html" target="_top" xlink:title=" ">
<polygon fill="white" stroke="#666666" points="646,-52 498,-52 498,0 646,0 646,-52"/>
<text text-anchor="start" x="506" y="-40" font-family="Helvetica,sans-Serif" font-size="10.00">/home/runner/work/cbmc</text>
<text text-anchor="start" x="506" y="-29" font-family="Helvetica,sans-Serif" font-size="10.00">/cbmc/src/goto&#45;instrument</text>
<text text-anchor="start" x="506" y="-18" font-family="Helvetica,sans-Serif" font-size="10.00">/contracts/dynamic&#45;frames</text>
<text text-anchor="middle" x="572" y="-7" font-family="Helvetica,sans-Serif" font-size="10.00">/dfcc_is_freeable.cpp</text>
</a>
</g>
</g>
<!-- Node1&#45;&gt;Node5 -->
<g id="edge4_Node000001_Node000005" class="edge">
<title>Node1&#45;&gt;Node5</title>
<g id="a_edge4_Node000001_Node000005"><a xlink:title=" ">
<path fill="none" stroke="#63b8ff" d="M623.49,-80.35C614.48,-71.01 604.79,-60.98 596.28,-52.16"/>
<polygon fill="#63b8ff" stroke="#63b8ff" points="621.08,-82.9 630.55,-87.66 626.12,-78.04 621.08,-82.9"/>
</a>
</g>
</g>
<!-- Node6 -->
<g id="Node000006" class="node">
<title>Node6</title>
<g id="a_Node000006"><a xlink:href="dfcc__is__fresh_8cpp.html" target="_top" xlink:title=" ">
<polygon fill="white" stroke="#666666" points="812,-52 664,-52 664,0 812,0 812,-52"/>
<text text-anchor="start" x="672" y="-40" font-family="Helvetica,sans-Serif" font-size="10.00">/home/runner/work/cbmc</text>
<text text-anchor="start" x="672" y="-29" font-family="Helvetica,sans-Serif" font-size="10.00">/cbmc/src/goto&#45;instrument</text>
<text text-anchor="start" x="672" y="-18" font-family="Helvetica,sans-Serif" font-size="10.00">/contracts/dynamic&#45;frames</text>
<text text-anchor="middle" x="738" y="-7" font-family="Helvetica,sans-Serif" font-size="10.00">/dfcc_is_fresh.cpp</text>
</a>
</g>
</g>
<!-- Node1&#45;&gt;Node6 -->
<g id="edge5_Node000001_Node000006" class="edge">
<title>Node1&#45;&gt;Node6</title>
<g id="a_edge5_Node000001_Node000006"><a xlink:title=" ">
<path fill="none" stroke="#63b8ff" d="M686.51,-80.35C695.52,-71.01 705.21,-60.98 713.72,-52.16"/>
<polygon fill="#63b8ff" stroke="#63b8ff" points="683.88,-78.04 679.45,-87.66 688.92,-82.9 683.88,-78.04"/>
</a>
</g>
</g>
<!-- Node7 -->
<g id="Node000007" class="node">
<title>Node7</title>
<g id="a_Node000007"><a xlink:href="dfcc__obeys__contract_8cpp.html" target="_top" xlink:title=" ">
<polygon fill="white" stroke="#666666" points="978,-52 830,-52 830,0 978,0 978,-52"/>
<text text-anchor="start" x="838" y="-40" font-family="Helvetica,sans-Serif" font-size="10.00">/home/runner/work/cbmc</text>
<text text-anchor="start" x="838" y="-29" font-family="Helvetica,sans-Serif" font-size="10.00">/cbmc/src/goto&#45;instrument</text>
<text text-anchor="start" x="838" y="-18" font-family="Helvetica,sans-Serif" font-size="10.00">/contracts/dynamic&#45;frames</text>
<text text-anchor="middle" x="904" y="-7" font-family="Helvetica,sans-Serif" font-size="10.00">/dfcc_obeys_contract.cpp</text>
</a>
</g>
</g>
<!-- Node1&#45;&gt;Node7 -->
<g id="edge6_Node000001_Node000007" class="edge">
<title>Node1&#45;&gt;Node7</title>
<g id="a_edge6_Node000001_Node000007"><a xlink:title=" ">
<path fill="none" stroke="#63b8ff" d="M737.39,-84.54C767.71,-74.07 801.81,-62.3 831.22,-52.14"/>
<polygon fill="#63b8ff" stroke="#63b8ff" points="736,-81.32 727.69,-87.89 738.29,-87.94 736,-81.32"/>
</a>
</g>
</g>
<!-- Node8 -->
<g id="Node000008" class="node">
<title>Node8</title>
<g id="a_Node000008"><a xlink:href="dfcc__pointer__equals_8cpp.html" target="_top" xlink:title=" ">
<polygon fill="white" stroke="#666666" points="1144,-52 996,-52 996,0 1144,0 1144,-52"/>
<text text-anchor="start" x="1004" y="-40" font-family="Helvetica,sans-Serif" font-size="10.00">/home/runner/work/cbmc</text>
<text text-anchor="start" x="1004" y="-29" font-family="Helvetica,sans-Serif" font-size="10.00">/cbmc/src/goto&#45;instrument</text>
<text text-anchor="start" x="1004" y="-18" font-family="Helvetica,sans-Serif" font-size="10.00">/contracts/dynamic&#45;frames</text>
<text text-anchor="middle" x="1070" y="-7" font-family="Helvetica,sans-Serif" font-size="10.00">/dfcc_pointer_equals.cpp</text>
</a>
</g>
</g>
<!-- Node1&#45;&gt;Node8 -->
<g id="edge7_Node000001_Node000008" class="edge">
<title>Node1&#45;&gt;Node8</title>
<g id="a_edge7_Node000001_Node000008"><a xlink:title=" ">
<path fill="none" stroke="#63b8ff" d="M739.16,-100.19C806.6,-89.28 903.42,-72.2 987,-52 989.93,-51.29 992.9,-50.54 995.9,-49.76"/>
<polygon fill="#63b8ff" stroke="#63b8ff" points="738.33,-96.77 729.01,-101.81 739.44,-103.68 738.33,-96.77"/>
</a>
</g>
</g>
<!-- Node9 -->
<g id="Node000009" class="node">
<title>Node9</title>
<g id="a_Node000009"><a xlink:href="dfcc__pointer__in__range_8cpp.html" target="_top" xlink:title=" ">
<polygon fill="white" stroke="#666666" points="1310,-52 1162,-52 1162,0 1310,0 1310,-52"/>
<text text-anchor="start" x="1170" y="-40" font-family="Helvetica,sans-Serif" font-size="10.00">/home/runner/work/cbmc</text>
<text text-anchor="start" x="1170" y="-29" font-family="Helvetica,sans-Serif" font-size="10.00">/cbmc/src/goto&#45;instrument</text>
<text text-anchor="start" x="1170" y="-18" font-family="Helvetica,sans-Serif" font-size="10.00">/contracts/dynamic&#45;frames</text>
<text text-anchor="middle" x="1236" y="-7" font-family="Helvetica,sans-Serif" font-size="10.00">/dfcc_pointer_in_range.cpp</text>
</a>
</g>
</g>
<!-- Node1&#45;&gt;Node9 -->
<g id="edge8_Node000001_Node000009" class="edge">
<title>Node1&#45;&gt;Node9</title>
<g id="a_edge8_Node000001_Node000009"><a xlink:title=" ">
<path fill="none" stroke="#63b8ff" d="M739.06,-107.11C838.65,-99.11 1009.19,-82.23 1153,-52 1155.95,-51.38 1158.94,-50.71 1161.95,-49.99"/>
<polygon fill="#63b8ff" stroke="#63b8ff" points="738.75,-103.62 729.06,-107.9 739.3,-110.6 738.75,-103.62"/>
</a>
</g>
</g>
</g>
</svg>
