<?xml version="1.0" encoding="UTF-8" standalone="no"?>
<!DOCTYPE svg PUBLIC "-//W3C//DTD SVG 1.1//EN"
 "http://www.w3.org/Graphics/SVG/1.1/DTD/svg11.dtd">
<!-- Generated by graphviz version 2.43.0 (0)
 -->
<!-- Title: /home/runner/work/cbmc/cbmc/src/goto&#45;instrument/contracts/dynamic&#45;frames/dfcc_library.h Pages: 1 -->
<svg width="2110pt" height="489pt"
 viewBox="0.00 0.00 2110.42 489.00" xmlns="http://www.w3.org/2000/svg" xmlns:xlink="http://www.w3.org/1999/xlink">
<g id="graph0" class="graph" transform="scale(1 1) rotate(0) translate(4 485)">
<title>/home/runner/work/cbmc/cbmc/src/goto&#45;instrument/contracts/dynamic&#45;frames/dfcc_library.h</title>
<!-- Node1 -->
<g id="Node000001" class="node">
<title>Node1</title>
<g id="a_Node000001"><a xlink:title="Dynamic frame condition checking library loading.">
<polygon fill="#999999" stroke="#666666" points="992.42,-481 844.42,-481 844.42,-429 992.42,-429 992.42,-481"/>
<text text-anchor="start" x="852.42" y="-469" font-family="Helvetica,sans-Serif" font-size="10.00">/home/runner/work/cbmc</text>
<text text-anchor="start" x="852.42" y="-458" font-family="Helvetica,sans-Serif" font-size="10.00">/cbmc/src/goto&#45;instrument</text>
<text text-anchor="start" x="852.42" y="-447" font-family="Helvetica,sans-Serif" font-size="10.00">/contracts/dynamic&#45;frames</text>
<text text-anchor="middle" x="918.42" y="-436" font-family="Helvetica,sans-Serif" font-size="10.00">/dfcc_library.h</text>
</a>
</g>
</g>
<!-- Node2 -->
<g id="Node000002" class="node">
<title>Node2</title>
<g id="a_Node000002"><a xlink:href="dfcc_8h.html" target="_top" xlink:title="Main class orchestrating the the whole program transformation for function contracts with Dynamic Fra...">
<polygon fill="white" stroke="#666666" points="1604.42,-211.5 1424.42,-211.5 1424.42,-170.5 1604.42,-170.5 1604.42,-211.5"/>
<text text-anchor="start" x="1432.42" y="-199.5" font-family="Helvetica,sans-Serif" font-size="10.00">/home/runner/work/cbmc</text>
<text text-anchor="start" x="1432.42" y="-188.5" font-family="Helvetica,sans-Serif" font-size="10.00">/cbmc/src/goto&#45;instrument</text>
<text text-anchor="middle" x="1514.42" y="-177.5" font-family="Helvetica,sans-Serif" font-size="10.00">/contracts/dynamic&#45;frames/dfcc.h</text>
</a>
</g>
</g>
<!-- Node1&#45;&gt;Node2 -->
<g id="edge1_Node000001_Node000002" class="edge">
<title>Node1&#45;&gt;Node2</title>
<g id="a_edge1_Node000001_Node000002"><a xlink:title=" ">
<path fill="none" stroke="#63b8ff" d="M834.11,-454.72C619.75,-455.69 66.9,-452.33 11.42,-393 -4.36,-376.12 -3.03,-359.04 11.42,-341 100.11,-230.25 1113.18,-200.26 1424.18,-193.64"/>
<polygon fill="#63b8ff" stroke="#63b8ff" points="834.38,-458.22 844.37,-454.67 834.35,-451.22 834.38,-458.22"/>
</a>
</g>
</g>
<!-- Node8 -->
<g id="Node000008" class="node">
<title>Node8</title>
<g id="a_Node000008"><a xlink:href="dfcc__cfg__info_8cpp.html" target="_top" xlink:title=" ">
<polygon fill="white" stroke="#666666" points="168.42,-393 20.42,-393 20.42,-341 168.42,-341 168.42,-393"/>
<text text-anchor="start" x="28.42" y="-381" font-family="Helvetica,sans-Serif" font-size="10.00">/home/runner/work/cbmc</text>
<text text-anchor="start" x="28.42" y="-370" font-family="Helvetica,sans-Serif" font-size="10.00">/cbmc/src/goto&#45;instrument</text>
<text text-anchor="start" x="28.42" y="-359" font-family="Helvetica,sans-Serif" font-size="10.00">/contracts/dynamic&#45;frames</text>
<text text-anchor="middle" x="94.42" y="-348" font-family="Helvetica,sans-Serif" font-size="10.00">/dfcc_cfg_info.cpp</text>
</a>
</g>
</g>
<!-- Node1&#45;&gt;Node8 -->
<g id="edge7_Node000001_Node000008" class="edge">
<title>Node1&#45;&gt;Node8</title>
<g id="a_edge7_Node000001_Node000008"><a xlink:title=" ">
<path fill="none" stroke="#63b8ff" d="M834.27,-452.82C696.01,-449.59 412.65,-437.59 177.42,-393 174.46,-392.44 171.46,-391.81 168.44,-391.14"/>
<polygon fill="#63b8ff" stroke="#63b8ff" points="834.3,-456.32 844.37,-453.04 834.45,-449.32 834.3,-456.32"/>
</a>
</g>
</g>
<!-- Node9 -->
<g id="Node000009" class="node">
<title>Node9</title>
<g id="a_Node000009"><a xlink:href="dfcc__contract__clauses__codegen_8cpp.html" target="_top" xlink:title=" ">
<polygon fill="white" stroke="#666666" points="380.42,-393 186.42,-393 186.42,-341 380.42,-341 380.42,-393"/>
<text text-anchor="start" x="194.42" y="-381" font-family="Helvetica,sans-Serif" font-size="10.00">/home/runner/work/cbmc</text>
<text text-anchor="start" x="194.42" y="-370" font-family="Helvetica,sans-Serif" font-size="10.00">/cbmc/src/goto&#45;instrument</text>
<text text-anchor="start" x="194.42" y="-359" font-family="Helvetica,sans-Serif" font-size="10.00">/contracts/dynamic&#45;frames</text>
<text text-anchor="middle" x="283.42" y="-348" font-family="Helvetica,sans-Serif" font-size="10.00">/dfcc_contract_clauses_codegen.cpp</text>
</a>
</g>
</g>
<!-- Node1&#45;&gt;Node9 -->
<g id="edge8_Node000001_Node000009" class="edge">
<title>Node1&#45;&gt;Node9</title>
<g id="a_edge8_Node000001_Node000009"><a xlink:title=" ">
<path fill="none" stroke="#63b8ff" d="M834.2,-446.96C730.34,-437.64 548.64,-419.27 394.42,-393 389.84,-392.22 385.17,-391.37 380.46,-390.48"/>
<polygon fill="#63b8ff" stroke="#63b8ff" points="834.04,-450.46 844.31,-447.86 834.66,-443.48 834.04,-450.46"/>
</a>
</g>
</g>
<!-- Node10 -->
<g id="Node000010" class="node">
<title>Node10</title>
<g id="a_Node000010"><a xlink:href="dfcc__contract__functions_8cpp.html" target="_top" xlink:title=" ">
<polygon fill="white" stroke="#666666" points="568.92,-305 413.92,-305 413.92,-253 568.92,-253 568.92,-305"/>
<text text-anchor="start" x="421.92" y="-293" font-family="Helvetica,sans-Serif" font-size="10.00">/home/runner/work/cbmc</text>
<text text-anchor="start" x="421.92" y="-282" font-family="Helvetica,sans-Serif" font-size="10.00">/cbmc/src/goto&#45;instrument</text>
<text text-anchor="start" x="421.92" y="-271" font-family="Helvetica,sans-Serif" font-size="10.00">/contracts/dynamic&#45;frames</text>
<text text-anchor="middle" x="491.42" y="-260" font-family="Helvetica,sans-Serif" font-size="10.00">/dfcc_contract_functions.cpp</text>
</a>
</g>
</g>
<!-- Node1&#45;&gt;Node10 -->
<g id="edge9_Node000001_Node000010" class="edge">
<title>Node1&#45;&gt;Node10</title>
<g id="a_edge9_Node000001_Node000010"><a xlink:title=" ">
<path fill="none" stroke="#63b8ff" d="M834.01,-448.83C707.27,-440.19 479.95,-420.97 455.42,-393 433.7,-368.23 453.19,-330.28 470.87,-305.3"/>
<polygon fill="#63b8ff" stroke="#63b8ff" points="833.87,-452.32 844.08,-449.51 834.34,-445.34 833.87,-452.32"/>
</a>
</g>
</g>
<!-- Node11 -->
<g id="Node000011" class="node">
<title>Node11</title>
<g id="a_Node000011"><a xlink:href="dfcc__contract__handler_8cpp.html" target="_top" xlink:title=" ">
<polygon fill="white" stroke="#666666" points="819.42,-305 671.42,-305 671.42,-253 819.42,-253 819.42,-305"/>
<text text-anchor="start" x="679.42" y="-293" font-family="Helvetica,sans-Serif" font-size="10.00">/home/runner/work/cbmc</text>
<text text-anchor="start" x="679.42" y="-282" font-family="Helvetica,sans-Serif" font-size="10.00">/cbmc/src/goto&#45;instrument</text>
<text text-anchor="start" x="679.42" y="-271" font-family="Helvetica,sans-Serif" font-size="10.00">/contracts/dynamic&#45;frames</text>
<text text-anchor="middle" x="745.42" y="-260" font-family="Helvetica,sans-Serif" font-size="10.00">/dfcc_contract_handler.cpp</text>
</a>
</g>
</g>
<!-- Node1&#45;&gt;Node11 -->
<g id="edge10_Node000001_Node000011" class="edge">
<title>Node1&#45;&gt;Node11</title>
<g id="a_edge10_Node000001_Node000011"><a xlink:title=" ">
<path fill="none" stroke="#63b8ff" d="M833.91,-448.42C710.74,-439.41 493.93,-419.92 470.42,-393 455.22,-375.59 455.96,-359.02 470.42,-341 483.08,-325.22 594.31,-304.35 671.36,-291.56"/>
<polygon fill="#63b8ff" stroke="#63b8ff" points="833.85,-451.92 844.07,-449.15 834.35,-444.94 833.85,-451.92"/>
</a>
</g>
</g>
<!-- Node12 -->
<g id="Node000012" class="node">
<title>Node12</title>
<g id="a_Node000012"><a xlink:href="dfcc__instrument_8cpp.html" target="_top" xlink:title=" ">
<polygon fill="white" stroke="#666666" points="1319.42,-305 1171.42,-305 1171.42,-253 1319.42,-253 1319.42,-305"/>
<text text-anchor="start" x="1179.42" y="-293" font-family="Helvetica,sans-Serif" font-size="10.00">/home/runner/work/cbmc</text>
<text text-anchor="start" x="1179.42" y="-282" font-family="Helvetica,sans-Serif" font-size="10.00">/cbmc/src/goto&#45;instrument</text>
<text text-anchor="start" x="1179.42" y="-271" font-family="Helvetica,sans-Serif" font-size="10.00">/contracts/dynamic&#45;frames</text>
<text text-anchor="middle" x="1245.42" y="-260" font-family="Helvetica,sans-Serif" font-size="10.00">/dfcc_instrument.cpp</text>
</a>
</g>
</g>
<!-- Node1&#45;&gt;Node12 -->
<g id="edge11_Node000001_Node000012" class="edge">
<title>Node1&#45;&gt;Node12</title>
<g id="a_edge11_Node000001_Node000012"><a xlink:title=" ">
<path fill="none" stroke="#63b8ff" d="M834.12,-454.05C725.4,-452.12 545.27,-441.45 503.42,-393 488.31,-375.51 487.76,-358 503.42,-341 514.66,-328.8 985.42,-296.91 1171.16,-284.78"/>
<polygon fill="#63b8ff" stroke="#63b8ff" points="834.36,-457.56 844.41,-454.22 834.47,-450.56 834.36,-457.56"/>
</a>
</g>
</g>
<!-- Node13 -->
<g id="Node000013" class="node">
<title>Node13</title>
<g id="a_Node000013"><a xlink:href="dfcc__is__freeable_8cpp.html" target="_top" xlink:title=" ">
<polygon fill="white" stroke="#666666" points="660.42,-393 512.42,-393 512.42,-341 660.42,-341 660.42,-393"/>
<text text-anchor="start" x="520.42" y="-381" font-family="Helvetica,sans-Serif" font-size="10.00">/home/runner/work/cbmc</text>
<text text-anchor="start" x="520.42" y="-370" font-family="Helvetica,sans-Serif" font-size="10.00">/cbmc/src/goto&#45;instrument</text>
<text text-anchor="start" x="520.42" y="-359" font-family="Helvetica,sans-Serif" font-size="10.00">/contracts/dynamic&#45;frames</text>
<text text-anchor="middle" x="586.42" y="-348" font-family="Helvetica,sans-Serif" font-size="10.00">/dfcc_is_freeable.cpp</text>
</a>
</g>
</g>
<!-- Node1&#45;&gt;Node13 -->
<g id="edge12_Node000001_Node000013" class="edge">
<title>Node1&#45;&gt;Node13</title>
<g id="a_edge12_Node000001_Node000013"><a xlink:title=" ">
<path fill="none" stroke="#63b8ff" d="M834.53,-434.61C786.11,-423.12 724.15,-407.94 669.42,-393 666.52,-392.21 663.56,-391.39 660.58,-390.55"/>
<polygon fill="#63b8ff" stroke="#63b8ff" points="833.81,-438.03 844.34,-436.92 835.42,-431.22 833.81,-438.03"/>
</a>
</g>
</g>
<!-- Node14 -->
<g id="Node000014" class="node">
<title>Node14</title>
<g id="a_Node000014"><a xlink:href="dfcc__is__fresh_8cpp.html" target="_top" xlink:title=" ">
<polygon fill="white" stroke="#666666" points="826.42,-393 678.42,-393 678.42,-341 826.42,-341 826.42,-393"/>
<text text-anchor="start" x="686.42" y="-381" font-family="Helvetica,sans-Serif" font-size="10.00">/home/runner/work/cbmc</text>
<text text-anchor="start" x="686.42" y="-370" font-family="Helvetica,sans-Serif" font-size="10.00">/cbmc/src/goto&#45;instrument</text>
<text text-anchor="start" x="686.42" y="-359" font-family="Helvetica,sans-Serif" font-size="10.00">/contracts/dynamic&#45;frames</text>
<text text-anchor="middle" x="752.42" y="-348" font-family="Helvetica,sans-Serif" font-size="10.00">/dfcc_is_fresh.cpp</text>
</a>
</g>
</g>
<!-- Node1&#45;&gt;Node14 -->
<g id="edge13_Node000001_Node000014" class="edge">
<title>Node1&#45;&gt;Node14</title>
<g id="a_edge13_Node000001_Node000014"><a xlink:title=" ">
<path fill="none" stroke="#63b8ff" d="M860.85,-424.18C841.32,-414.06 819.7,-402.86 800.94,-393.14"/>
<polygon fill="#63b8ff" stroke="#63b8ff" points="859.47,-427.4 869.96,-428.89 862.69,-421.19 859.47,-427.4"/>
</a>
</g>
</g>
<!-- Node15 -->
<g id="Node000015" class="node">
<title>Node15</title>
<g id="a_Node000015"><a xlink:href="dfcc__library_8cpp.html" target="_top" xlink:title=" ">
<polygon fill="white" stroke="#666666" points="992.42,-393 844.42,-393 844.42,-341 992.42,-341 992.42,-393"/>
<text text-anchor="start" x="852.42" y="-381" font-family="Helvetica,sans-Serif" font-size="10.00">/home/runner/work/cbmc</text>
<text text-anchor="start" x="852.42" y="-370" font-family="Helvetica,sans-Serif" font-size="10.00">/cbmc/src/goto&#45;instrument</text>
<text text-anchor="start" x="852.42" y="-359" font-family="Helvetica,sans-Serif" font-size="10.00">/contracts/dynamic&#45;frames</text>
<text text-anchor="middle" x="918.42" y="-348" font-family="Helvetica,sans-Serif" font-size="10.00">/dfcc_library.cpp</text>
</a>
</g>
</g>
<!-- Node1&#45;&gt;Node15 -->
<g id="edge14_Node000001_Node000015" class="edge">
<title>Node1&#45;&gt;Node15</title>
<g id="a_edge14_Node000001_Node000015"><a xlink:title=" ">
<path fill="none" stroke="#63b8ff" d="M918.42,-418.56C918.42,-410.04 918.42,-401.1 918.42,-393.16"/>
<polygon fill="#63b8ff" stroke="#63b8ff" points="914.92,-418.66 918.42,-428.66 921.92,-418.66 914.92,-418.66"/>
</a>
</g>
</g>
<!-- Node16 -->
<g id="Node000016" class="node">
<title>Node16</title>
<g id="a_Node000016"><a xlink:href="dfcc__lift__memory__predicates_8cpp.html" target="_top" xlink:title=" ">
<polygon fill="white" stroke="#666666" points="1191.92,-393 1010.92,-393 1010.92,-341 1191.92,-341 1191.92,-393"/>
<text text-anchor="start" x="1018.92" y="-381" font-family="Helvetica,sans-Serif" font-size="10.00">/home/runner/work/cbmc</text>
<text text-anchor="start" x="1018.92" y="-370" font-family="Helvetica,sans-Serif" font-size="10.00">/cbmc/src/goto&#45;instrument</text>
<text text-anchor="start" x="1018.92" y="-359" font-family="Helvetica,sans-Serif" font-size="10.00">/contracts/dynamic&#45;frames</text>
<text text-anchor="middle" x="1101.42" y="-348" font-family="Helvetica,sans-Serif" font-size="10.00">/dfcc_lift_memory_predicates.cpp</text>
</a>
</g>
</g>
<!-- Node1&#45;&gt;Node16 -->
<g id="edge15_Node000001_Node000016" class="edge">
<title>Node1&#45;&gt;Node16</title>
<g id="a_edge15_Node000001_Node000016"><a xlink:title=" ">
<path fill="none" stroke="#63b8ff" d="M981.01,-424.59C1002.77,-414.36 1026.97,-402.99 1047.93,-393.14"/>
<polygon fill="#63b8ff" stroke="#63b8ff" points="979.41,-421.47 971.84,-428.89 982.38,-427.81 979.41,-421.47"/>
</a>
</g>
</g>
<!-- Node17 -->
<g id="Node000017" class="node">
<title>Node17</title>
<g id="a_Node000017"><a xlink:href="dfcc__obeys__contract_8cpp.html" target="_top" xlink:title=" ">
<polygon fill="white" stroke="#666666" points="1358.42,-393 1210.42,-393 1210.42,-341 1358.42,-341 1358.42,-393"/>
<text text-anchor="start" x="1218.42" y="-381" font-family="Helvetica,sans-Serif" font-size="10.00">/home/runner/work/cbmc</text>
<text text-anchor="start" x="1218.42" y="-370" font-family="Helvetica,sans-Serif" font-size="10.00">/cbmc/src/goto&#45;instrument</text>
<text text-anchor="start" x="1218.42" y="-359" font-family="Helvetica,sans-Serif" font-size="10.00">/contracts/dynamic&#45;frames</text>
<text text-anchor="middle" x="1284.42" y="-348" font-family="Helvetica,sans-Serif" font-size="10.00">/dfcc_obeys_contract.cpp</text>
</a>
</g>
</g>
<!-- Node1&#45;&gt;Node17 -->
<g id="edge16_Node000001_Node000017" class="edge">
<title>Node1&#45;&gt;Node17</title>
<g id="a_edge16_Node000001_Node000017"><a xlink:title=" ">
<path fill="none" stroke="#63b8ff" d="M1002.65,-437.69C1059.15,-426.3 1135.08,-410.11 1201.42,-393 1204.33,-392.25 1207.3,-391.46 1210.29,-390.65"/>
<polygon fill="#63b8ff" stroke="#63b8ff" points="1001.8,-434.29 992.69,-439.69 1003.18,-441.15 1001.8,-434.29"/>
</a>
</g>
</g>
<!-- Node18 -->
<g id="Node000018" class="node">
<title>Node18</title>
<g id="a_Node000018"><a xlink:href="dfcc__pointer__equals_8cpp.html" target="_top" xlink:title=" ">
<polygon fill="white" stroke="#666666" points="1524.42,-393 1376.42,-393 1376.42,-341 1524.42,-341 1524.42,-393"/>
<text text-anchor="start" x="1384.42" y="-381" font-family="Helvetica,sans-Serif" font-size="10.00">/home/runner/work/cbmc</text>
<text text-anchor="start" x="1384.42" y="-370" font-family="Helvetica,sans-Serif" font-size="10.00">/cbmc/src/goto&#45;instrument</text>
<text text-anchor="start" x="1384.42" y="-359" font-family="Helvetica,sans-Serif" font-size="10.00">/contracts/dynamic&#45;frames</text>
<text text-anchor="middle" x="1450.42" y="-348" font-family="Helvetica,sans-Serif" font-size="10.00">/dfcc_pointer_equals.cpp</text>
</a>
</g>
</g>
<!-- Node1&#45;&gt;Node18 -->
<g id="edge17_Node000001_Node000018" class="edge">
<title>Node1&#45;&gt;Node18</title>
<g id="a_edge17_Node000001_Node000018"><a xlink:title=" ">
<path fill="none" stroke="#63b8ff" d="M1002.49,-446.57C1093.23,-437.63 1241.64,-420.31 1367.42,-393 1370.36,-392.36 1373.35,-391.67 1376.36,-390.94"/>
<polygon fill="#63b8ff" stroke="#63b8ff" points="1002.15,-443.09 992.54,-447.54 1002.83,-450.05 1002.15,-443.09"/>
</a>
</g>
</g>
<!-- Node19 -->
<g id="Node000019" class="node">
<title>Node19</title>
<g id="a_Node000019"><a xlink:href="dfcc__pointer__in__range_8cpp.html" target="_top" xlink:title=" ">
<polygon fill="white" stroke="#666666" points="1690.42,-393 1542.42,-393 1542.42,-341 1690.42,-341 1690.42,-393"/>
<text text-anchor="start" x="1550.42" y="-381" font-family="Helvetica,sans-Serif" font-size="10.00">/home/runner/work/cbmc</text>
<text text-anchor="start" x="1550.42" y="-370" font-family="Helvetica,sans-Serif" font-size="10.00">/cbmc/src/goto&#45;instrument</text>
<text text-anchor="start" x="1550.42" y="-359" font-family="Helvetica,sans-Serif" font-size="10.00">/contracts/dynamic&#45;frames</text>
<text text-anchor="middle" x="1616.42" y="-348" font-family="Helvetica,sans-Serif" font-size="10.00">/dfcc_pointer_in_range.cpp</text>
</a>
</g>
</g>
<!-- Node1&#45;&gt;Node19 -->
<g id="edge18_Node000001_Node000019" class="edge">
<title>Node1&#45;&gt;Node19</title>
<g id="a_edge18_Node000001_Node000019"><a xlink:title=" ">
<path fill="none" stroke="#63b8ff" d="M1002.61,-450.81C1121.78,-445.13 1346.02,-430.15 1533.42,-393 1536.37,-392.41 1539.37,-391.77 1542.39,-391.07"/>
<polygon fill="#63b8ff" stroke="#63b8ff" points="1002.29,-447.32 992.46,-451.28 1002.62,-454.32 1002.29,-447.32"/>
</a>
</g>
</g>
<!-- Node20 -->
<g id="Node000020" class="node">
<title>Node20</title>
<g id="a_Node000020"><a xlink:href="dfcc__spec__functions_8cpp.html" target="_top" xlink:title=" ">
<polygon fill="white" stroke="#666666" points="1856.42,-305 1708.42,-305 1708.42,-253 1856.42,-253 1856.42,-305"/>
<text text-anchor="start" x="1716.42" y="-293" font-family="Helvetica,sans-Serif" font-size="10.00">/home/runner/work/cbmc</text>
<text text-anchor="start" x="1716.42" y="-282" font-family="Helvetica,sans-Serif" font-size="10.00">/cbmc/src/goto&#45;instrument</text>
<text text-anchor="start" x="1716.42" y="-271" font-family="Helvetica,sans-Serif" font-size="10.00">/contracts/dynamic&#45;frames</text>
<text text-anchor="middle" x="1782.42" y="-260" font-family="Helvetica,sans-Serif" font-size="10.00">/dfcc_spec_functions.cpp</text>
</a>
</g>
</g>
<!-- Node1&#45;&gt;Node20 -->
<g id="edge19_Node000001_Node000020" class="edge">
<title>Node1&#45;&gt;Node20</title>
<g id="a_edge19_Node000001_Node000020"><a xlink:title=" ">
<path fill="none" stroke="#63b8ff" d="M1002.96,-451.66C1229.68,-444.97 1836.13,-424.24 1865.42,-393 1881.23,-376.14 1875.86,-361.62 1865.42,-341 1858.07,-326.48 1845.46,-314.58 1832.26,-305.26"/>
<polygon fill="#63b8ff" stroke="#63b8ff" points="1002.67,-448.17 992.77,-451.96 1002.87,-455.16 1002.67,-448.17"/>
</a>
</g>
</g>
<!-- Node21 -->
<g id="Node000021" class="node">
<title>Node21</title>
<g id="a_Node000021"><a xlink:href="dfcc__spec__functions_8h.html" target="_top" xlink:title="Translate functions that specify assignable and freeable targets declaratively into active functions ...">
<polygon fill="white" stroke="#666666" points="1856.42,-393 1708.42,-393 1708.42,-341 1856.42,-341 1856.42,-393"/>
<text text-anchor="start" x="1716.42" y="-381" font-family="Helvetica,sans-Serif" font-size="10.00">/home/runner/work/cbmc</text>
<text text-anchor="start" x="1716.42" y="-370" font-family="Helvetica,sans-Serif" font-size="10.00">/cbmc/src/goto&#45;instrument</text>
<text text-anchor="start" x="1716.42" y="-359" font-family="Helvetica,sans-Serif" font-size="10.00">/contracts/dynamic&#45;frames</text>
<text text-anchor="middle" x="1782.42" y="-348" font-family="Helvetica,sans-Serif" font-size="10.00">/dfcc_spec_functions.h</text>
</a>
</g>
</g>
<!-- Node1&#45;&gt;Node21 -->
<g id="edge20_Node000001_Node000021" class="edge">
<title>Node1&#45;&gt;Node21</title>
<g id="a_edge20_Node000001_Node000021"><a xlink:title=" ">
<path fill="none" stroke="#63b8ff" d="M1002.69,-453.32C1146.72,-450.85 1448.94,-439.94 1699.42,-393 1702.38,-392.45 1705.38,-391.83 1708.4,-391.15"/>
<polygon fill="#63b8ff" stroke="#63b8ff" points="1002.54,-449.82 992.6,-453.48 1002.66,-456.82 1002.54,-449.82"/>
</a>
</g>
</g>
<!-- Node23 -->
<g id="Node000023" class="node">
<title>Node23</title>
<g id="a_Node000023"><a xlink:href="dfcc__swap__and__wrap_8h.html" target="_top" xlink:title="Given a function_id and contract_id, swaps its body to a function with a fresh mangled name,...">
<polygon fill="white" stroke="#666666" points="2022.42,-305 1874.42,-305 1874.42,-253 2022.42,-253 2022.42,-305"/>
<text text-anchor="start" x="1882.42" y="-293" font-family="Helvetica,sans-Serif" font-size="10.00">/home/runner/work/cbmc</text>
<text text-anchor="start" x="1882.42" y="-282" font-family="Helvetica,sans-Serif" font-size="10.00">/cbmc/src/goto&#45;instrument</text>
<text text-anchor="start" x="1882.42" y="-271" font-family="Helvetica,sans-Serif" font-size="10.00">/contracts/dynamic&#45;frames</text>
<text text-anchor="middle" x="1948.42" y="-260" font-family="Helvetica,sans-Serif" font-size="10.00">/dfcc_swap_and_wrap.h</text>
</a>
</g>
</g>
<!-- Node1&#45;&gt;Node23 -->
<g id="edge30_Node000001_Node000023" class="edge">
<title>Node1&#45;&gt;Node23</title>
<g id="a_edge30_Node000001_Node000023"><a xlink:title=" ">
<path fill="none" stroke="#63b8ff" d="M1002.95,-453.19C1224.43,-450.43 1809.64,-438.84 1883.42,-393 1915.14,-373.29 1932.97,-332.05 1941.64,-305.21"/>
<polygon fill="#63b8ff" stroke="#63b8ff" points="1002.64,-449.69 992.68,-453.31 1002.72,-456.69 1002.64,-449.69"/>
</a>
</g>
</g>
<!-- Node25 -->
<g id="Node000025" class="node">
<title>Node25</title>
<g id="a_Node000025"><a xlink:href="dfcc__wrapper__program_8cpp.html" target="_top" xlink:title=" ">
<polygon fill="white" stroke="#666666" points="2102.42,-393 1950.42,-393 1950.42,-341 2102.42,-341 2102.42,-393"/>
<text text-anchor="start" x="1958.42" y="-381" font-family="Helvetica,sans-Serif" font-size="10.00">/home/runner/work/cbmc</text>
<text text-anchor="start" x="1958.42" y="-370" font-family="Helvetica,sans-Serif" font-size="10.00">/cbmc/src/goto&#45;instrument</text>
<text text-anchor="start" x="1958.42" y="-359" font-family="Helvetica,sans-Serif" font-size="10.00">/contracts/dynamic&#45;frames</text>
<text text-anchor="middle" x="2026.42" y="-348" font-family="Helvetica,sans-Serif" font-size="10.00">/dfcc_wrapper_program.cpp</text>
</a>
</g>
</g>
<!-- Node1&#45;&gt;Node25 -->
<g id="edge31_Node000001_Node000025" class="edge">
<title>Node1&#45;&gt;Node25</title>
<g id="a_edge31_Node000001_Node000025"><a xlink:title=" ">
<path fill="none" stroke="#63b8ff" d="M1002.65,-454.93C1177.8,-455.56 1593.54,-450.23 1936.42,-393 1940.9,-392.25 1945.47,-391.37 1950.07,-390.39"/>
<polygon fill="#63b8ff" stroke="#63b8ff" points="1002.49,-451.43 992.47,-454.89 1002.46,-458.43 1002.49,-451.43"/>
</a>
</g>
</g>
<!-- Node3 -->
<g id="Node000003" class="node">
<title>Node3</title>
<g id="a_Node000003"><a xlink:href="dfcc_8cpp.html" target="_top" xlink:title=" ">
<polygon fill="white" stroke="#666666" points="1497.42,-129 1349.42,-129 1349.42,-77 1497.42,-77 1497.42,-129"/>
<text text-anchor="start" x="1357.42" y="-117" font-family="Helvetica,sans-Serif" font-size="10.00">/home/runner/work/cbmc</text>
<text text-anchor="start" x="1357.42" y="-106" font-family="Helvetica,sans-Serif" font-size="10.00">/cbmc/src/goto&#45;instrument</text>
<text text-anchor="start" x="1357.42" y="-95" font-family="Helvetica,sans-Serif" font-size="10.00">/contracts/dynamic&#45;frames</text>
<text text-anchor="middle" x="1423.42" y="-84" font-family="Helvetica,sans-Serif" font-size="10.00">/dfcc.cpp</text>
</a>
</g>
</g>
<!-- Node2&#45;&gt;Node3 -->
<g id="edge2_Node000002_Node000003" class="edge">
<title>Node2&#45;&gt;Node3</title>
<g id="a_edge2_Node000002_Node000003"><a xlink:title=" ">
<path fill="none" stroke="#63b8ff" d="M1486.48,-163.6C1474.94,-152.69 1461.63,-140.11 1450.21,-129.32"/>
<polygon fill="#63b8ff" stroke="#63b8ff" points="1484.1,-166.16 1493.77,-170.49 1488.91,-161.07 1484.1,-166.16"/>
</a>
</g>
</g>
<!-- Node4 -->
<g id="Node000004" class="node">
<title>Node4</title>
<g id="a_Node000004"><a xlink:href="goto__instrument__parse__options_8h.html" target="_top" xlink:title="Command Line Parsing.">
<polygon fill="white" stroke="#666666" points="1697.42,-123.5 1515.42,-123.5 1515.42,-82.5 1697.42,-82.5 1697.42,-123.5"/>
<text text-anchor="start" x="1523.42" y="-111.5" font-family="Helvetica,sans-Serif" font-size="10.00">/home/runner/work/cbmc</text>
<text text-anchor="start" x="1523.42" y="-100.5" font-family="Helvetica,sans-Serif" font-size="10.00">/cbmc/src/goto&#45;instrument</text>
<text text-anchor="middle" x="1606.42" y="-89.5" font-family="Helvetica,sans-Serif" font-size="10.00">/goto_instrument_parse_options.h</text>
</a>
</g>
</g>
<!-- Node2&#45;&gt;Node4 -->
<g id="edge3_Node000002_Node000004" class="edge">
<title>Node2&#45;&gt;Node4</title>
<g id="a_edge3_Node000002_Node000004"><a xlink:title=" ">
<path fill="none" stroke="#63b8ff" d="M1542.64,-163.62C1556.39,-150.77 1572.65,-135.57 1585.31,-123.74"/>
<polygon fill="#63b8ff" stroke="#63b8ff" points="1540.21,-161.1 1535.3,-170.49 1544.99,-166.21 1540.21,-161.1"/>
</a>
</g>
</g>
<!-- Node5 -->
<g id="Node000005" class="node">
<title>Node5</title>
<g id="a_Node000005"><a xlink:href="goto__instrument__languages_8cpp.html" target="_top" xlink:title="Language Registration.">
<polygon fill="white" stroke="#666666" points="1513.42,-41 1337.42,-41 1337.42,0 1513.42,0 1513.42,-41"/>
<text text-anchor="start" x="1345.42" y="-29" font-family="Helvetica,sans-Serif" font-size="10.00">/home/runner/work/cbmc</text>
<text text-anchor="start" x="1345.42" y="-18" font-family="Helvetica,sans-Serif" font-size="10.00">/cbmc/src/goto&#45;instrument</text>
<text text-anchor="middle" x="1425.42" y="-7" font-family="Helvetica,sans-Serif" font-size="10.00">/goto_instrument_languages.cpp</text>
</a>
</g>
</g>
<!-- Node4&#45;&gt;Node5 -->
<g id="edge4_Node000004_Node000005" class="edge">
<title>Node4&#45;&gt;Node5</title>
<g id="a_edge4_Node000004_Node000005"><a xlink:title=" ">
<path fill="none" stroke="#63b8ff" d="M1552.98,-78.23C1526.42,-66.42 1494.71,-52.32 1469.55,-41.13"/>
<polygon fill="#63b8ff" stroke="#63b8ff" points="1551.58,-81.44 1562.14,-82.31 1554.43,-75.05 1551.58,-81.44"/>
</a>
</g>
</g>
<!-- Node6 -->
<g id="Node000006" class="node">
<title>Node6</title>
<g id="a_Node000006"><a xlink:href="goto__instrument__main_8cpp.html" target="_top" xlink:title="Main Module.">
<polygon fill="white" stroke="#666666" points="1681.42,-41 1531.42,-41 1531.42,0 1681.42,0 1681.42,-41"/>
<text text-anchor="start" x="1539.42" y="-29" font-family="Helvetica,sans-Serif" font-size="10.00">/home/runner/work/cbmc</text>
<text text-anchor="start" x="1539.42" y="-18" font-family="Helvetica,sans-Serif" font-size="10.00">/cbmc/src/goto&#45;instrument</text>
<text text-anchor="middle" x="1606.42" y="-7" font-family="Helvetica,sans-Serif" font-size="10.00">/goto_instrument_main.cpp</text>
</a>
</g>
</g>
<!-- Node4&#45;&gt;Node6 -->
<g id="edge5_Node000004_Node000006" class="edge">
<title>Node4&#45;&gt;Node6</title>
<g id="a_edge5_Node000004_Node000006"><a xlink:title=" ">
<path fill="none" stroke="#63b8ff" d="M1606.42,-71.87C1606.42,-61.6 1606.42,-50.4 1606.42,-41.17"/>
<polygon fill="#63b8ff" stroke="#63b8ff" points="1602.92,-72.1 1606.42,-82.1 1609.92,-72.1 1602.92,-72.1"/>
</a>
</g>
</g>
<!-- Node7 -->
<g id="Node000007" class="node">
<title>Node7</title>
<g id="a_Node000007"><a xlink:href="goto__instrument__parse__options_8cpp.html" target="_top" xlink:title="Main Module.">
<polygon fill="white" stroke="#666666" points="1893.42,-41 1699.42,-41 1699.42,0 1893.42,0 1893.42,-41"/>
<text text-anchor="start" x="1707.42" y="-29" font-family="Helvetica,sans-Serif" font-size="10.00">/home/runner/work/cbmc</text>
<text text-anchor="start" x="1707.42" y="-18" font-family="Helvetica,sans-Serif" font-size="10.00">/cbmc/src/goto&#45;instrument</text>
<text text-anchor="middle" x="1796.42" y="-7" font-family="Helvetica,sans-Serif" font-size="10.00">/goto_instrument_parse_options.cpp</text>
</a>
</g>
</g>
<!-- Node4&#45;&gt;Node7 -->
<g id="edge6_Node000004_Node000007" class="edge">
<title>Node4&#45;&gt;Node7</title>
<g id="a_edge6_Node000004_Node000007"><a xlink:title=" ">
<path fill="none" stroke="#63b8ff" d="M1662.15,-78.39C1690.11,-66.54 1723.57,-52.37 1750.09,-41.13"/>
<polygon fill="#63b8ff" stroke="#63b8ff" points="1660.74,-75.18 1652.9,-82.31 1663.47,-81.63 1660.74,-75.18"/>
</a>
</g>
</g>
<!-- Node21&#45;&gt;Node2 -->
<g id="edge21_Node000021_Node000002" class="edge">
<title>Node21&#45;&gt;Node2</title>
<g id="a_edge21_Node000021_Node000002"><a xlink:title=" ">
<path fill="none" stroke="#63b8ff" d="M1698.41,-341.03C1622.97,-325.02 1583.4,-357.38 1533.42,-305 1509.53,-279.96 1509.34,-236.75 1511.66,-211.65"/>
<polygon fill="#63b8ff" stroke="#63b8ff" points="1697.75,-344.47 1708.29,-343.36 1699.36,-337.65 1697.75,-344.47"/>
</a>
</g>
</g>
<!-- Node21&#45;&gt;Node10 -->
<g id="edge22_Node000021_Node000010" class="edge">
<title>Node21&#45;&gt;Node10</title>
<g id="a_edge22_Node000021_Node000010"><a xlink:title=" ">
<path fill="none" stroke="#63b8ff" d="M1697.85,-340.93C1242.6,-267.05 1118.36,-346.12 662.42,-305 631.79,-302.24 598.28,-297.68 569.1,-293.21"/>
<polygon fill="#63b8ff" stroke="#63b8ff" points="1697.54,-344.43 1707.98,-342.59 1698.68,-337.52 1697.54,-344.43"/>
</a>
</g>
</g>
<!-- Node21&#45;&gt;Node11 -->
<g id="edge23_Node000021_Node000011" class="edge">
<title>Node21&#45;&gt;Node11</title>
<g id="a_edge23_Node000021_Node000011"><a xlink:title=" ">
<path fill="none" stroke="#63b8ff" d="M1698.39,-341.6C1610.5,-332.98 1028.16,-297.24 819.53,-284.51"/>
<polygon fill="#63b8ff" stroke="#63b8ff" points="1698.07,-345.08 1708.41,-342.79 1698.9,-338.13 1698.07,-345.08"/>
</a>
</g>
</g>
<!-- Node21&#45;&gt;Node12 -->
<g id="edge24_Node000021_Node000012" class="edge">
<title>Node21&#45;&gt;Node12</title>
<g id="a_edge24_Node000021_Node000012"><a xlink:title=" ">
<path fill="none" stroke="#63b8ff" d="M1698.4,-340.92C1559.76,-311.55 1407.85,-294.64 1319.57,-286.31"/>
<polygon fill="#63b8ff" stroke="#63b8ff" points="1697.85,-344.38 1708.36,-343.06 1699.32,-337.54 1697.85,-344.38"/>
</a>
</g>
</g>
<!-- Node21&#45;&gt;Node20 -->
<g id="edge26_Node000021_Node000020" class="edge">
<title>Node21&#45;&gt;Node20</title>
<g id="a_edge26_Node000021_Node000020"><a xlink:title=" ">
<path fill="none" stroke="#63b8ff" d="M1782.42,-330.56C1782.42,-322.04 1782.42,-313.1 1782.42,-305.16"/>
<polygon fill="#63b8ff" stroke="#63b8ff" points="1778.92,-330.66 1782.42,-340.66 1785.92,-330.66 1778.92,-330.66"/>
</a>
</g>
</g>
<!-- Node22 -->
<g id="Node000022" class="node">
<title>Node22</title>
<g id="a_Node000022"><a xlink:href="dfcc__instrument__loop_8cpp.html" target="_top" xlink:title=" ">
<polygon fill="white" stroke="#666666" points="1690.42,-305 1542.42,-305 1542.42,-253 1690.42,-253 1690.42,-305"/>
<text text-anchor="start" x="1550.42" y="-293" font-family="Helvetica,sans-Serif" font-size="10.00">/home/runner/work/cbmc</text>
<text text-anchor="start" x="1550.42" y="-282" font-family="Helvetica,sans-Serif" font-size="10.00">/cbmc/src/goto&#45;instrument</text>
<text text-anchor="start" x="1550.42" y="-271" font-family="Helvetica,sans-Serif" font-size="10.00">/contracts/dynamic&#45;frames</text>
<text text-anchor="middle" x="1616.42" y="-260" font-family="Helvetica,sans-Serif" font-size="10.00">/dfcc_instrument_loop.cpp</text>
</a>
</g>
</g>
<!-- Node21&#45;&gt;Node22 -->
<g id="edge25_Node000021_Node000022" class="edge">
<title>Node21&#45;&gt;Node22</title>
<g id="a_edge25_Node000021_Node000022"><a xlink:title=" ">
<path fill="none" stroke="#63b8ff" d="M1724.85,-336.18C1705.32,-326.06 1683.7,-314.86 1664.94,-305.14"/>
<polygon fill="#63b8ff" stroke="#63b8ff" points="1723.47,-339.4 1733.96,-340.89 1726.69,-333.19 1723.47,-339.4"/>
</a>
</g>
</g>
<!-- Node21&#45;&gt;Node23 -->
<g id="edge27_Node000021_Node000023" class="edge">
<title>Node21&#45;&gt;Node23</title>
<g id="a_edge27_Node000021_Node000023"><a xlink:title=" ">
<path fill="none" stroke="#63b8ff" d="M1839.99,-336.18C1859.52,-326.06 1881.14,-314.86 1899.9,-305.14"/>
<polygon fill="#63b8ff" stroke="#63b8ff" points="1838.15,-333.19 1830.88,-340.89 1841.37,-339.4 1838.15,-333.19"/>
</a>
</g>
</g>
<!-- Node23&#45;&gt;Node2 -->
<g id="edge28_Node000023_Node000002" class="edge">
<title>Node23&#45;&gt;Node2</title>
<g id="a_edge28_Node000023_Node000002"><a xlink:title=" ">
<path fill="none" stroke="#63b8ff" d="M1864.39,-252.86C1770.62,-231.06 1673.3,-214.93 1604.47,-204.59"/>
<polygon fill="#63b8ff" stroke="#63b8ff" points="1863.79,-256.32 1874.33,-255.2 1865.39,-249.51 1863.79,-256.32"/>
</a>
</g>
</g>
<!-- Node24 -->
<g id="Node000024" class="node">
<title>Node24</title>
<g id="a_Node000024"><a xlink:href="dfcc__swap__and__wrap_8cpp.html" target="_top" xlink:title=" ">
<polygon fill="white" stroke="#666666" points="2022.42,-217 1874.42,-217 1874.42,-165 2022.42,-165 2022.42,-217"/>
<text text-anchor="start" x="1882.42" y="-205" font-family="Helvetica,sans-Serif" font-size="10.00">/home/runner/work/cbmc</text>
<text text-anchor="start" x="1882.42" y="-194" font-family="Helvetica,sans-Serif" font-size="10.00">/cbmc/src/goto&#45;instrument</text>
<text text-anchor="start" x="1882.42" y="-183" font-family="Helvetica,sans-Serif" font-size="10.00">/contracts/dynamic&#45;frames</text>
<text text-anchor="middle" x="1948.42" y="-172" font-family="Helvetica,sans-Serif" font-size="10.00">/dfcc_swap_and_wrap.cpp</text>
</a>
</g>
</g>
<!-- Node23&#45;&gt;Node24 -->
<g id="edge29_Node000023_Node000024" class="edge">
<title>Node23&#45;&gt;Node24</title>
<g id="a_edge29_Node000023_Node000024"><a xlink:title=" ">
<path fill="none" stroke="#63b8ff" d="M1948.42,-242.56C1948.42,-234.04 1948.42,-225.1 1948.42,-217.16"/>
<polygon fill="#63b8ff" stroke="#63b8ff" points="1944.92,-242.66 1948.42,-252.66 1951.92,-242.66 1944.92,-242.66"/>
</a>
</g>
</g>
</g>
</svg>
