<?xml version="1.0" encoding="UTF-8" standalone="no"?>
<!DOCTYPE svg PUBLIC "-//W3C//DTD SVG 1.1//EN"
 "http://www.w3.org/Graphics/SVG/1.1/DTD/svg11.dtd">
<!-- Generated by graphviz version 2.43.0 (0)
 -->
<!-- Title: /home/runner/work/cbmc/cbmc/src/goto&#45;instrument/contracts/loop_contract_config.h Pages: 1 -->
<svg width="3020pt" height="489pt"
 viewBox="0.00 0.00 3019.50 489.00" xmlns="http://www.w3.org/2000/svg" xmlns:xlink="http://www.w3.org/1999/xlink">
<g id="graph0" class="graph" transform="scale(1 1) rotate(0) translate(4 485)">
<title>/home/runner/work/cbmc/cbmc/src/goto&#45;instrument/contracts/loop_contract_config.h</title>
<!-- Node1 -->
<g id="Node000001" class="node">
<title>Node1</title>
<g id="a_Node000001"><a xlink:title="Config for loop contract.">
<polygon fill="#999999" stroke="#666666" points="1641.5,-481 1496.5,-481 1496.5,-429 1641.5,-429 1641.5,-481"/>
<text text-anchor="start" x="1504.5" y="-469" font-family="Helvetica,sans-Serif" font-size="10.00">/home/runner/work/cbmc</text>
<text text-anchor="start" x="1504.5" y="-458" font-family="Helvetica,sans-Serif" font-size="10.00">/cbmc/src/goto&#45;instrument</text>
<text text-anchor="start" x="1504.5" y="-447" font-family="Helvetica,sans-Serif" font-size="10.00">/contracts/loop_contract</text>
<text text-anchor="middle" x="1569" y="-436" font-family="Helvetica,sans-Serif" font-size="10.00">_config.h</text>
</a>
</g>
</g>
<!-- Node2 -->
<g id="Node000002" class="node">
<title>Node2</title>
<g id="a_Node000002"><a xlink:href="contracts_8h.html" target="_top" xlink:title="Verify and use annotated invariants and pre/post&#45;conditions.">
<polygon fill="white" stroke="#666666" points="2550.5,-387.5 2405.5,-387.5 2405.5,-346.5 2550.5,-346.5 2550.5,-387.5"/>
<text text-anchor="start" x="2413.5" y="-375.5" font-family="Helvetica,sans-Serif" font-size="10.00">/home/runner/work/cbmc</text>
<text text-anchor="start" x="2413.5" y="-364.5" font-family="Helvetica,sans-Serif" font-size="10.00">/cbmc/src/goto&#45;instrument</text>
<text text-anchor="middle" x="2478" y="-353.5" font-family="Helvetica,sans-Serif" font-size="10.00">/contracts/contracts.h</text>
</a>
</g>
</g>
<!-- Node1&#45;&gt;Node2 -->
<g id="edge1_Node000001_Node000002" class="edge">
<title>Node1&#45;&gt;Node2</title>
<g id="a_edge1_Node000001_Node000002"><a xlink:title=" ">
<path fill="none" stroke="#63b8ff" d="M1651.86,-446.16C1828.28,-429.47 2238.54,-390.65 2405.43,-374.87"/>
<polygon fill="#63b8ff" stroke="#63b8ff" points="1651.48,-442.68 1641.85,-447.11 1652.14,-449.65 1651.48,-442.68"/>
</a>
</g>
</g>
<!-- Node13 -->
<g id="Node000013" class="node">
<title>Node13</title>
<g id="a_Node000013"><a xlink:href="dfcc__cfg__info_8h.html" target="_top" xlink:title="Class that computes CFG information about the loop structure of a GOTO function for the purpose of dy...">
<polygon fill="white" stroke="#666666" points="1643,-393 1495,-393 1495,-341 1643,-341 1643,-393"/>
<text text-anchor="start" x="1503" y="-381" font-family="Helvetica,sans-Serif" font-size="10.00">/home/runner/work/cbmc</text>
<text text-anchor="start" x="1503" y="-370" font-family="Helvetica,sans-Serif" font-size="10.00">/cbmc/src/goto&#45;instrument</text>
<text text-anchor="start" x="1503" y="-359" font-family="Helvetica,sans-Serif" font-size="10.00">/contracts/dynamic&#45;frames</text>
<text text-anchor="middle" x="1569" y="-348" font-family="Helvetica,sans-Serif" font-size="10.00">/dfcc_cfg_info.h</text>
</a>
</g>
</g>
<!-- Node1&#45;&gt;Node13 -->
<g id="edge13_Node000001_Node000013" class="edge">
<title>Node1&#45;&gt;Node13</title>
<g id="a_edge13_Node000001_Node000013"><a xlink:title=" ">
<path fill="none" stroke="#63b8ff" d="M1569,-418.56C1569,-410.04 1569,-401.1 1569,-393.16"/>
<polygon fill="#63b8ff" stroke="#63b8ff" points="1565.5,-418.66 1569,-428.66 1572.5,-418.66 1565.5,-418.66"/>
</a>
</g>
</g>
<!-- Node22 -->
<g id="Node000022" class="node">
<title>Node22</title>
<g id="a_Node000022"><a xlink:href="dfcc__instrument_8h.html" target="_top" xlink:title="Add instrumentation to a goto program to perform frame condition checks.">
<polygon fill="white" stroke="#666666" points="856,-393 708,-393 708,-341 856,-341 856,-393"/>
<text text-anchor="start" x="716" y="-381" font-family="Helvetica,sans-Serif" font-size="10.00">/home/runner/work/cbmc</text>
<text text-anchor="start" x="716" y="-370" font-family="Helvetica,sans-Serif" font-size="10.00">/cbmc/src/goto&#45;instrument</text>
<text text-anchor="start" x="716" y="-359" font-family="Helvetica,sans-Serif" font-size="10.00">/contracts/dynamic&#45;frames</text>
<text text-anchor="middle" x="782" y="-348" font-family="Helvetica,sans-Serif" font-size="10.00">/dfcc_instrument.h</text>
</a>
</g>
</g>
<!-- Node1&#45;&gt;Node22 -->
<g id="edge22_Node000001_Node000022" class="edge">
<title>Node1&#45;&gt;Node22</title>
<g id="a_edge22_Node000001_Node000022"><a xlink:title=" ">
<path fill="none" stroke="#63b8ff" d="M1486.02,-444.93C1331.83,-428.08 1003.45,-392.2 856.17,-376.11"/>
<polygon fill="#63b8ff" stroke="#63b8ff" points="1486.05,-448.46 1496.37,-446.06 1486.81,-441.5 1486.05,-448.46"/>
</a>
</g>
</g>
<!-- Node3 -->
<g id="Node000003" class="node">
<title>Node3</title>
<g id="a_Node000003"><a xlink:href="contracts_8cpp.html" target="_top" xlink:title="Verify and use annotated loop and function contracts.">
<polygon fill="white" stroke="#666666" points="2793.5,-299.5 2648.5,-299.5 2648.5,-258.5 2793.5,-258.5 2793.5,-299.5"/>
<text text-anchor="start" x="2656.5" y="-287.5" font-family="Helvetica,sans-Serif" font-size="10.00">/home/runner/work/cbmc</text>
<text text-anchor="start" x="2656.5" y="-276.5" font-family="Helvetica,sans-Serif" font-size="10.00">/cbmc/src/goto&#45;instrument</text>
<text text-anchor="middle" x="2721" y="-265.5" font-family="Helvetica,sans-Serif" font-size="10.00">/contracts/contracts.cpp</text>
</a>
</g>
</g>
<!-- Node2&#45;&gt;Node3 -->
<g id="edge2_Node000002_Node000003" class="edge">
<title>Node2&#45;&gt;Node3</title>
<g id="a_edge2_Node000002_Node000003"><a xlink:title=" ">
<path fill="none" stroke="#63b8ff" d="M2542.66,-343.11C2581,-329.55 2629.08,-312.53 2665.66,-299.59"/>
<polygon fill="#63b8ff" stroke="#63b8ff" points="2541.4,-339.85 2533.14,-346.49 2543.74,-346.45 2541.4,-339.85"/>
</a>
</g>
</g>
<!-- Node4 -->
<g id="Node000004" class="node">
<title>Node4</title>
<g id="a_Node000004"><a xlink:href="goto__instrument__parse__options_8h.html" target="_top" xlink:title="Command Line Parsing.">
<polygon fill="white" stroke="#666666" points="1834,-123.5 1652,-123.5 1652,-82.5 1834,-82.5 1834,-123.5"/>
<text text-anchor="start" x="1660" y="-111.5" font-family="Helvetica,sans-Serif" font-size="10.00">/home/runner/work/cbmc</text>
<text text-anchor="start" x="1660" y="-100.5" font-family="Helvetica,sans-Serif" font-size="10.00">/cbmc/src/goto&#45;instrument</text>
<text text-anchor="middle" x="1743" y="-89.5" font-family="Helvetica,sans-Serif" font-size="10.00">/goto_instrument_parse_options.h</text>
</a>
</g>
</g>
<!-- Node2&#45;&gt;Node4 -->
<g id="edge3_Node000002_Node000004" class="edge">
<title>Node2&#45;&gt;Node4</title>
<g id="a_edge3_Node000002_Node000004"><a xlink:title=" ">
<path fill="none" stroke="#63b8ff" d="M2459.03,-337.8C2437.04,-305.27 2403.24,-255.85 2399,-253 2223.71,-135.12 1968.64,-109.43 1834.03,-104.51"/>
<polygon fill="#63b8ff" stroke="#63b8ff" points="2456.39,-340.15 2464.89,-346.48 2462.19,-336.23 2456.39,-340.15"/>
</a>
</g>
</g>
<!-- Node8 -->
<g id="Node000008" class="node">
<title>Node8</title>
<g id="a_Node000008"><a xlink:href="cegis__verifier_8cpp.html" target="_top" xlink:title="Verifier for Counterexample&#45;Guided Synthesis.">
<polygon fill="white" stroke="#666666" points="2390,-299.5 2242,-299.5 2242,-258.5 2390,-258.5 2390,-299.5"/>
<text text-anchor="start" x="2250" y="-287.5" font-family="Helvetica,sans-Serif" font-size="10.00">/home/runner/work/cbmc</text>
<text text-anchor="start" x="2250" y="-276.5" font-family="Helvetica,sans-Serif" font-size="10.00">/cbmc/src/goto&#45;synthesizer</text>
<text text-anchor="middle" x="2316" y="-265.5" font-family="Helvetica,sans-Serif" font-size="10.00">/cegis_verifier.cpp</text>
</a>
</g>
</g>
<!-- Node2&#45;&gt;Node8 -->
<g id="edge7_Node000002_Node000008" class="edge">
<title>Node2&#45;&gt;Node8</title>
<g id="a_edge7_Node000002_Node000008"><a xlink:title=" ">
<path fill="none" stroke="#63b8ff" d="M2432.27,-341.72C2407.17,-328.4 2376.45,-312.09 2352.89,-299.59"/>
<polygon fill="#63b8ff" stroke="#63b8ff" points="2430.77,-344.89 2441.24,-346.49 2434.05,-338.7 2430.77,-344.89"/>
</a>
</g>
</g>
<!-- Node9 -->
<g id="Node000009" class="node">
<title>Node9</title>
<g id="a_Node000009"><a xlink:href="goto__synthesizer__parse__options_8cpp.html" target="_top" xlink:title="Main Module.">
<polygon fill="white" stroke="#666666" points="3011.5,-211.5 2814.5,-211.5 2814.5,-170.5 3011.5,-170.5 3011.5,-211.5"/>
<text text-anchor="start" x="2822.5" y="-199.5" font-family="Helvetica,sans-Serif" font-size="10.00">/home/runner/work/cbmc</text>
<text text-anchor="start" x="2822.5" y="-188.5" font-family="Helvetica,sans-Serif" font-size="10.00">/cbmc/src/goto&#45;synthesizer</text>
<text text-anchor="middle" x="2913" y="-177.5" font-family="Helvetica,sans-Serif" font-size="10.00">/goto_synthesizer_parse_options.cpp</text>
</a>
</g>
</g>
<!-- Node2&#45;&gt;Node9 -->
<g id="edge8_Node000002_Node000009" class="edge">
<title>Node2&#45;&gt;Node9</title>
<g id="a_edge8_Node000002_Node000009"><a xlink:title=" ">
<path fill="none" stroke="#63b8ff" d="M2560.9,-364.15C2629.45,-359.52 2727.45,-345.51 2803,-305 2845.47,-282.23 2881.53,-237.36 2899.93,-211.54"/>
<polygon fill="#63b8ff" stroke="#63b8ff" points="2560.35,-360.68 2550.58,-364.8 2560.78,-367.67 2560.35,-360.68"/>
</a>
</g>
</g>
<!-- Node10 -->
<g id="Node000010" class="node">
<title>Node10</title>
<g id="a_Node000010"><a xlink:href="goto__synthesizer__parse__options_8h.html" target="_top" xlink:title="Command Line Parsing.">
<polygon fill="white" stroke="#666666" points="2630.5,-299.5 2445.5,-299.5 2445.5,-258.5 2630.5,-258.5 2630.5,-299.5"/>
<text text-anchor="start" x="2453.5" y="-287.5" font-family="Helvetica,sans-Serif" font-size="10.00">/home/runner/work/cbmc</text>
<text text-anchor="start" x="2453.5" y="-276.5" font-family="Helvetica,sans-Serif" font-size="10.00">/cbmc/src/goto&#45;synthesizer</text>
<text text-anchor="middle" x="2538" y="-265.5" font-family="Helvetica,sans-Serif" font-size="10.00">/goto_synthesizer_parse_options.h</text>
</a>
</g>
</g>
<!-- Node2&#45;&gt;Node10 -->
<g id="edge9_Node000002_Node000010" class="edge">
<title>Node2&#45;&gt;Node10</title>
<g id="a_edge9_Node000002_Node000010"><a xlink:title=" ">
<path fill="none" stroke="#63b8ff" d="M2497.41,-338.18C2506.15,-325.64 2516.28,-311.13 2524.23,-299.74"/>
<polygon fill="#63b8ff" stroke="#63b8ff" points="2494.47,-336.28 2491.61,-346.49 2500.21,-340.29 2494.47,-336.28"/>
</a>
</g>
</g>
<!-- Node5 -->
<g id="Node000005" class="node">
<title>Node5</title>
<g id="a_Node000005"><a xlink:href="goto__instrument__languages_8cpp.html" target="_top" xlink:title="Language Registration.">
<polygon fill="white" stroke="#666666" points="1650,-41 1474,-41 1474,0 1650,0 1650,-41"/>
<text text-anchor="start" x="1482" y="-29" font-family="Helvetica,sans-Serif" font-size="10.00">/home/runner/work/cbmc</text>
<text text-anchor="start" x="1482" y="-18" font-family="Helvetica,sans-Serif" font-size="10.00">/cbmc/src/goto&#45;instrument</text>
<text text-anchor="middle" x="1562" y="-7" font-family="Helvetica,sans-Serif" font-size="10.00">/goto_instrument_languages.cpp</text>
</a>
</g>
</g>
<!-- Node4&#45;&gt;Node5 -->
<g id="edge4_Node000004_Node000005" class="edge">
<title>Node4&#45;&gt;Node5</title>
<g id="a_edge4_Node000004_Node000005"><a xlink:title=" ">
<path fill="none" stroke="#63b8ff" d="M1689.56,-78.23C1663,-66.42 1631.29,-52.32 1606.13,-41.13"/>
<polygon fill="#63b8ff" stroke="#63b8ff" points="1688.16,-81.44 1698.72,-82.31 1691.01,-75.05 1688.16,-81.44"/>
</a>
</g>
</g>
<!-- Node6 -->
<g id="Node000006" class="node">
<title>Node6</title>
<g id="a_Node000006"><a xlink:href="goto__instrument__main_8cpp.html" target="_top" xlink:title="Main Module.">
<polygon fill="white" stroke="#666666" points="1818,-41 1668,-41 1668,0 1818,0 1818,-41"/>
<text text-anchor="start" x="1676" y="-29" font-family="Helvetica,sans-Serif" font-size="10.00">/home/runner/work/cbmc</text>
<text text-anchor="start" x="1676" y="-18" font-family="Helvetica,sans-Serif" font-size="10.00">/cbmc/src/goto&#45;instrument</text>
<text text-anchor="middle" x="1743" y="-7" font-family="Helvetica,sans-Serif" font-size="10.00">/goto_instrument_main.cpp</text>
</a>
</g>
</g>
<!-- Node4&#45;&gt;Node6 -->
<g id="edge5_Node000004_Node000006" class="edge">
<title>Node4&#45;&gt;Node6</title>
<g id="a_edge5_Node000004_Node000006"><a xlink:title=" ">
<path fill="none" stroke="#63b8ff" d="M1743,-71.87C1743,-61.6 1743,-50.4 1743,-41.17"/>
<polygon fill="#63b8ff" stroke="#63b8ff" points="1739.5,-72.1 1743,-82.1 1746.5,-72.1 1739.5,-72.1"/>
</a>
</g>
</g>
<!-- Node7 -->
<g id="Node000007" class="node">
<title>Node7</title>
<g id="a_Node000007"><a xlink:href="goto__instrument__parse__options_8cpp.html" target="_top" xlink:title="Main Module.">
<polygon fill="white" stroke="#666666" points="2030,-41 1836,-41 1836,0 2030,0 2030,-41"/>
<text text-anchor="start" x="1844" y="-29" font-family="Helvetica,sans-Serif" font-size="10.00">/home/runner/work/cbmc</text>
<text text-anchor="start" x="1844" y="-18" font-family="Helvetica,sans-Serif" font-size="10.00">/cbmc/src/goto&#45;instrument</text>
<text text-anchor="middle" x="1933" y="-7" font-family="Helvetica,sans-Serif" font-size="10.00">/goto_instrument_parse_options.cpp</text>
</a>
</g>
</g>
<!-- Node4&#45;&gt;Node7 -->
<g id="edge6_Node000004_Node000007" class="edge">
<title>Node4&#45;&gt;Node7</title>
<g id="a_edge6_Node000004_Node000007"><a xlink:title=" ">
<path fill="none" stroke="#63b8ff" d="M1798.73,-78.39C1826.69,-66.54 1860.15,-52.37 1886.67,-41.13"/>
<polygon fill="#63b8ff" stroke="#63b8ff" points="1797.32,-75.18 1789.48,-82.31 1800.05,-81.63 1797.32,-75.18"/>
</a>
</g>
</g>
<!-- Node10&#45;&gt;Node9 -->
<g id="edge12_Node000010_Node000009" class="edge">
<title>Node10&#45;&gt;Node9</title>
<g id="a_edge12_Node000010_Node000009"><a xlink:title=" ">
<path fill="none" stroke="#63b8ff" d="M2626.66,-256.12C2631.17,-255.05 2635.64,-254.01 2640,-253 2713.56,-236.01 2732.35,-233.59 2806,-217 2813.82,-215.24 2821.95,-213.38 2830.08,-211.51"/>
<polygon fill="#63b8ff" stroke="#63b8ff" points="2625.66,-252.76 2616.75,-258.48 2627.28,-259.57 2625.66,-252.76"/>
</a>
</g>
</g>
<!-- Node11 -->
<g id="Node000011" class="node">
<title>Node11</title>
<g id="a_Node000011"><a xlink:href="goto__synthesizer__languages_8cpp.html" target="_top" xlink:title="Language Registration.">
<polygon fill="white" stroke="#666666" points="2625.5,-211.5 2446.5,-211.5 2446.5,-170.5 2625.5,-170.5 2625.5,-211.5"/>
<text text-anchor="start" x="2454.5" y="-199.5" font-family="Helvetica,sans-Serif" font-size="10.00">/home/runner/work/cbmc</text>
<text text-anchor="start" x="2454.5" y="-188.5" font-family="Helvetica,sans-Serif" font-size="10.00">/cbmc/src/goto&#45;synthesizer</text>
<text text-anchor="middle" x="2536" y="-177.5" font-family="Helvetica,sans-Serif" font-size="10.00">/goto_synthesizer_languages.cpp</text>
</a>
</g>
</g>
<!-- Node10&#45;&gt;Node11 -->
<g id="edge10_Node000010_Node000011" class="edge">
<title>Node10&#45;&gt;Node11</title>
<g id="a_edge10_Node000010_Node000011"><a xlink:title=" ">
<path fill="none" stroke="#63b8ff" d="M2537.31,-248.36C2537.03,-236.26 2536.71,-222.58 2536.46,-211.74"/>
<polygon fill="#63b8ff" stroke="#63b8ff" points="2533.81,-248.57 2537.55,-258.49 2540.81,-248.41 2533.81,-248.57"/>
</a>
</g>
</g>
<!-- Node12 -->
<g id="Node000012" class="node">
<title>Node12</title>
<g id="a_Node000012"><a xlink:href="goto__synthesizer__main_8cpp.html" target="_top" xlink:title="Main Module.">
<polygon fill="white" stroke="#666666" points="2796.5,-211.5 2643.5,-211.5 2643.5,-170.5 2796.5,-170.5 2796.5,-211.5"/>
<text text-anchor="start" x="2651.5" y="-199.5" font-family="Helvetica,sans-Serif" font-size="10.00">/home/runner/work/cbmc</text>
<text text-anchor="start" x="2651.5" y="-188.5" font-family="Helvetica,sans-Serif" font-size="10.00">/cbmc/src/goto&#45;synthesizer</text>
<text text-anchor="middle" x="2720" y="-177.5" font-family="Helvetica,sans-Serif" font-size="10.00">/goto_synthesizer_main.cpp</text>
</a>
</g>
</g>
<!-- Node10&#45;&gt;Node12 -->
<g id="edge11_Node000010_Node000012" class="edge">
<title>Node10&#45;&gt;Node12</title>
<g id="a_edge11_Node000010_Node000012"><a xlink:title=" ">
<path fill="none" stroke="#63b8ff" d="M2588.64,-254.07C2616.97,-240.68 2651.85,-224.2 2678.55,-211.59"/>
<polygon fill="#63b8ff" stroke="#63b8ff" points="2586.84,-251.05 2579.3,-258.49 2589.84,-257.38 2586.84,-251.05"/>
</a>
</g>
</g>
<!-- Node14 -->
<g id="Node000014" class="node">
<title>Node14</title>
<g id="a_Node000014"><a xlink:href="dfcc__cfg__info_8cpp.html" target="_top" xlink:title=" ">
<polygon fill="white" stroke="#666666" points="2224,-305 2076,-305 2076,-253 2224,-253 2224,-305"/>
<text text-anchor="start" x="2084" y="-293" font-family="Helvetica,sans-Serif" font-size="10.00">/home/runner/work/cbmc</text>
<text text-anchor="start" x="2084" y="-282" font-family="Helvetica,sans-Serif" font-size="10.00">/cbmc/src/goto&#45;instrument</text>
<text text-anchor="start" x="2084" y="-271" font-family="Helvetica,sans-Serif" font-size="10.00">/contracts/dynamic&#45;frames</text>
<text text-anchor="middle" x="2150" y="-260" font-family="Helvetica,sans-Serif" font-size="10.00">/dfcc_cfg_info.cpp</text>
</a>
</g>
</g>
<!-- Node13&#45;&gt;Node14 -->
<g id="edge14_Node000013_Node000014" class="edge">
<title>Node13&#45;&gt;Node14</title>
<g id="a_edge14_Node000013_Node000014"><a xlink:title=" ">
<path fill="none" stroke="#63b8ff" d="M1653.06,-360.11C1752.65,-352.11 1923.19,-335.23 2067,-305 2069.95,-304.38 2072.94,-303.71 2075.95,-302.99"/>
<polygon fill="#63b8ff" stroke="#63b8ff" points="1652.75,-356.62 1643.06,-360.9 1653.3,-363.6 1652.75,-356.62"/>
</a>
</g>
</g>
<!-- Node15 -->
<g id="Node000015" class="node">
<title>Node15</title>
<g id="a_Node000015"><a xlink:href="dfcc__instrument_8cpp.html" target="_top" xlink:title=" ">
<polygon fill="white" stroke="#666666" points="1228,-305 1080,-305 1080,-253 1228,-253 1228,-305"/>
<text text-anchor="start" x="1088" y="-293" font-family="Helvetica,sans-Serif" font-size="10.00">/home/runner/work/cbmc</text>
<text text-anchor="start" x="1088" y="-282" font-family="Helvetica,sans-Serif" font-size="10.00">/cbmc/src/goto&#45;instrument</text>
<text text-anchor="start" x="1088" y="-271" font-family="Helvetica,sans-Serif" font-size="10.00">/contracts/dynamic&#45;frames</text>
<text text-anchor="middle" x="1154" y="-260" font-family="Helvetica,sans-Serif" font-size="10.00">/dfcc_instrument.cpp</text>
</a>
</g>
</g>
<!-- Node13&#45;&gt;Node15 -->
<g id="edge15_Node000013_Node000015" class="edge">
<title>Node13&#45;&gt;Node15</title>
<g id="a_edge15_Node000013_Node000015"><a xlink:title=" ">
<path fill="none" stroke="#63b8ff" d="M1484.84,-353.19C1417.4,-342.28 1320.58,-325.2 1237,-305 1234.07,-304.29 1231.1,-303.54 1228.1,-302.76"/>
<polygon fill="#63b8ff" stroke="#63b8ff" points="1484.56,-356.68 1494.99,-354.81 1485.67,-349.77 1484.56,-356.68"/>
</a>
</g>
</g>
<!-- Node16 -->
<g id="Node000016" class="node">
<title>Node16</title>
<g id="a_Node000016"><a xlink:href="dfcc__instrument__loop_8cpp.html" target="_top" xlink:title=" ">
<polygon fill="white" stroke="#666666" points="1062,-305 914,-305 914,-253 1062,-253 1062,-305"/>
<text text-anchor="start" x="922" y="-293" font-family="Helvetica,sans-Serif" font-size="10.00">/home/runner/work/cbmc</text>
<text text-anchor="start" x="922" y="-282" font-family="Helvetica,sans-Serif" font-size="10.00">/cbmc/src/goto&#45;instrument</text>
<text text-anchor="start" x="922" y="-271" font-family="Helvetica,sans-Serif" font-size="10.00">/contracts/dynamic&#45;frames</text>
<text text-anchor="middle" x="988" y="-260" font-family="Helvetica,sans-Serif" font-size="10.00">/dfcc_instrument_loop.cpp</text>
</a>
</g>
</g>
<!-- Node13&#45;&gt;Node16 -->
<g id="edge16_Node000013_Node000016" class="edge">
<title>Node13&#45;&gt;Node16</title>
<g id="a_edge16_Node000013_Node000016"><a xlink:title=" ">
<path fill="none" stroke="#63b8ff" d="M1484.94,-360.11C1385.35,-352.11 1214.81,-335.23 1071,-305 1068.05,-304.38 1065.06,-303.71 1062.05,-302.99"/>
<polygon fill="#63b8ff" stroke="#63b8ff" points="1484.7,-363.6 1494.94,-360.9 1485.25,-356.62 1484.7,-363.6"/>
</a>
</g>
</g>
<!-- Node17 -->
<g id="Node000017" class="node">
<title>Node17</title>
<g id="a_Node000017"><a xlink:href="dfcc__is__freeable_8cpp.html" target="_top" xlink:title=" ">
<polygon fill="white" stroke="#666666" points="1394,-305 1246,-305 1246,-253 1394,-253 1394,-305"/>
<text text-anchor="start" x="1254" y="-293" font-family="Helvetica,sans-Serif" font-size="10.00">/home/runner/work/cbmc</text>
<text text-anchor="start" x="1254" y="-282" font-family="Helvetica,sans-Serif" font-size="10.00">/cbmc/src/goto&#45;instrument</text>
<text text-anchor="start" x="1254" y="-271" font-family="Helvetica,sans-Serif" font-size="10.00">/contracts/dynamic&#45;frames</text>
<text text-anchor="middle" x="1320" y="-260" font-family="Helvetica,sans-Serif" font-size="10.00">/dfcc_is_freeable.cpp</text>
</a>
</g>
</g>
<!-- Node13&#45;&gt;Node17 -->
<g id="edge17_Node000013_Node000017" class="edge">
<title>Node13&#45;&gt;Node17</title>
<g id="a_edge17_Node000013_Node000017"><a xlink:title=" ">
<path fill="none" stroke="#63b8ff" d="M1486.61,-337.54C1456.29,-327.07 1422.19,-315.3 1392.78,-305.14"/>
<polygon fill="#63b8ff" stroke="#63b8ff" points="1485.71,-340.94 1496.31,-340.89 1488,-334.32 1485.71,-340.94"/>
</a>
</g>
</g>
<!-- Node18 -->
<g id="Node000018" class="node">
<title>Node18</title>
<g id="a_Node000018"><a xlink:href="dfcc__is__fresh_8cpp.html" target="_top" xlink:title=" ">
<polygon fill="white" stroke="#666666" points="1560,-305 1412,-305 1412,-253 1560,-253 1560,-305"/>
<text text-anchor="start" x="1420" y="-293" font-family="Helvetica,sans-Serif" font-size="10.00">/home/runner/work/cbmc</text>
<text text-anchor="start" x="1420" y="-282" font-family="Helvetica,sans-Serif" font-size="10.00">/cbmc/src/goto&#45;instrument</text>
<text text-anchor="start" x="1420" y="-271" font-family="Helvetica,sans-Serif" font-size="10.00">/contracts/dynamic&#45;frames</text>
<text text-anchor="middle" x="1486" y="-260" font-family="Helvetica,sans-Serif" font-size="10.00">/dfcc_is_fresh.cpp</text>
</a>
</g>
</g>
<!-- Node13&#45;&gt;Node18 -->
<g id="edge18_Node000013_Node000018" class="edge">
<title>Node13&#45;&gt;Node18</title>
<g id="a_edge18_Node000013_Node000018"><a xlink:title=" ">
<path fill="none" stroke="#63b8ff" d="M1537.49,-333.35C1528.48,-324.01 1518.79,-313.98 1510.28,-305.16"/>
<polygon fill="#63b8ff" stroke="#63b8ff" points="1535.08,-335.9 1544.55,-340.66 1540.12,-331.04 1535.08,-335.9"/>
</a>
</g>
</g>
<!-- Node19 -->
<g id="Node000019" class="node">
<title>Node19</title>
<g id="a_Node000019"><a xlink:href="dfcc__obeys__contract_8cpp.html" target="_top" xlink:title=" ">
<polygon fill="white" stroke="#666666" points="1726,-305 1578,-305 1578,-253 1726,-253 1726,-305"/>
<text text-anchor="start" x="1586" y="-293" font-family="Helvetica,sans-Serif" font-size="10.00">/home/runner/work/cbmc</text>
<text text-anchor="start" x="1586" y="-282" font-family="Helvetica,sans-Serif" font-size="10.00">/cbmc/src/goto&#45;instrument</text>
<text text-anchor="start" x="1586" y="-271" font-family="Helvetica,sans-Serif" font-size="10.00">/contracts/dynamic&#45;frames</text>
<text text-anchor="middle" x="1652" y="-260" font-family="Helvetica,sans-Serif" font-size="10.00">/dfcc_obeys_contract.cpp</text>
</a>
</g>
</g>
<!-- Node13&#45;&gt;Node19 -->
<g id="edge19_Node000013_Node000019" class="edge">
<title>Node13&#45;&gt;Node19</title>
<g id="a_edge19_Node000013_Node000019"><a xlink:title=" ">
<path fill="none" stroke="#63b8ff" d="M1600.51,-333.35C1609.52,-324.01 1619.21,-313.98 1627.72,-305.16"/>
<polygon fill="#63b8ff" stroke="#63b8ff" points="1597.88,-331.04 1593.45,-340.66 1602.92,-335.9 1597.88,-331.04"/>
</a>
</g>
</g>
<!-- Node20 -->
<g id="Node000020" class="node">
<title>Node20</title>
<g id="a_Node000020"><a xlink:href="dfcc__pointer__equals_8cpp.html" target="_top" xlink:title=" ">
<polygon fill="white" stroke="#666666" points="1892,-305 1744,-305 1744,-253 1892,-253 1892,-305"/>
<text text-anchor="start" x="1752" y="-293" font-family="Helvetica,sans-Serif" font-size="10.00">/home/runner/work/cbmc</text>
<text text-anchor="start" x="1752" y="-282" font-family="Helvetica,sans-Serif" font-size="10.00">/cbmc/src/goto&#45;instrument</text>
<text text-anchor="start" x="1752" y="-271" font-family="Helvetica,sans-Serif" font-size="10.00">/contracts/dynamic&#45;frames</text>
<text text-anchor="middle" x="1818" y="-260" font-family="Helvetica,sans-Serif" font-size="10.00">/dfcc_pointer_equals.cpp</text>
</a>
</g>
</g>
<!-- Node13&#45;&gt;Node20 -->
<g id="edge20_Node000013_Node000020" class="edge">
<title>Node13&#45;&gt;Node20</title>
<g id="a_edge20_Node000013_Node000020"><a xlink:title=" ">
<path fill="none" stroke="#63b8ff" d="M1651.39,-337.54C1681.71,-327.07 1715.81,-315.3 1745.22,-305.14"/>
<polygon fill="#63b8ff" stroke="#63b8ff" points="1650,-334.32 1641.69,-340.89 1652.29,-340.94 1650,-334.32"/>
</a>
</g>
</g>
<!-- Node21 -->
<g id="Node000021" class="node">
<title>Node21</title>
<g id="a_Node000021"><a xlink:href="dfcc__pointer__in__range_8cpp.html" target="_top" xlink:title=" ">
<polygon fill="white" stroke="#666666" points="2058,-305 1910,-305 1910,-253 2058,-253 2058,-305"/>
<text text-anchor="start" x="1918" y="-293" font-family="Helvetica,sans-Serif" font-size="10.00">/home/runner/work/cbmc</text>
<text text-anchor="start" x="1918" y="-282" font-family="Helvetica,sans-Serif" font-size="10.00">/cbmc/src/goto&#45;instrument</text>
<text text-anchor="start" x="1918" y="-271" font-family="Helvetica,sans-Serif" font-size="10.00">/contracts/dynamic&#45;frames</text>
<text text-anchor="middle" x="1984" y="-260" font-family="Helvetica,sans-Serif" font-size="10.00">/dfcc_pointer_in_range.cpp</text>
</a>
</g>
</g>
<!-- Node13&#45;&gt;Node21 -->
<g id="edge21_Node000013_Node000021" class="edge">
<title>Node13&#45;&gt;Node21</title>
<g id="a_edge21_Node000013_Node000021"><a xlink:title=" ">
<path fill="none" stroke="#63b8ff" d="M1653.16,-353.19C1720.6,-342.28 1817.42,-325.2 1901,-305 1903.93,-304.29 1906.9,-303.54 1909.9,-302.76"/>
<polygon fill="#63b8ff" stroke="#63b8ff" points="1652.33,-349.77 1643.01,-354.81 1653.44,-356.68 1652.33,-349.77"/>
</a>
</g>
</g>
<!-- Node22&#45;&gt;Node15 -->
<g id="edge28_Node000022_Node000015" class="edge">
<title>Node22&#45;&gt;Node15</title>
<g id="a_edge28_Node000022_Node000015"><a xlink:title=" ">
<path fill="none" stroke="#63b8ff" d="M865.88,-350.24C923.8,-338.89 1002.43,-322.53 1071,-305 1073.92,-304.25 1076.88,-303.47 1079.88,-302.67"/>
<polygon fill="#63b8ff" stroke="#63b8ff" points="865.19,-346.81 856.04,-352.16 866.53,-353.68 865.19,-346.81"/>
</a>
</g>
</g>
<!-- Node22&#45;&gt;Node16 -->
<g id="edge29_Node000022_Node000016" class="edge">
<title>Node22&#45;&gt;Node16</title>
<g id="a_edge29_Node000022_Node000016"><a xlink:title=" ">
<path fill="none" stroke="#63b8ff" d="M851.47,-337C876.22,-326.66 903.88,-315.12 927.79,-305.14"/>
<polygon fill="#63b8ff" stroke="#63b8ff" points="850.02,-333.81 842.14,-340.89 852.71,-340.27 850.02,-333.81"/>
</a>
</g>
</g>
<!-- Node23 -->
<g id="Node000023" class="node">
<title>Node23</title>
<g id="a_Node000023"><a xlink:href="dfcc_8h.html" target="_top" xlink:title="Main class orchestrating the the whole program transformation for function contracts with Dynamic Fra...">
<polygon fill="white" stroke="#666666" points="976,-211.5 796,-211.5 796,-170.5 976,-170.5 976,-211.5"/>
<text text-anchor="start" x="804" y="-199.5" font-family="Helvetica,sans-Serif" font-size="10.00">/home/runner/work/cbmc</text>
<text text-anchor="start" x="804" y="-188.5" font-family="Helvetica,sans-Serif" font-size="10.00">/cbmc/src/goto&#45;instrument</text>
<text text-anchor="middle" x="886" y="-177.5" font-family="Helvetica,sans-Serif" font-size="10.00">/contracts/dynamic&#45;frames/dfcc.h</text>
</a>
</g>
</g>
<!-- Node22&#45;&gt;Node23 -->
<g id="edge23_Node000022_Node000023" class="edge">
<title>Node22&#45;&gt;Node23</title>
<g id="a_edge23_Node000022_Node000023"><a xlink:title=" ">
<path fill="none" stroke="#63b8ff" d="M838.97,-334.68C849.76,-326.34 859.88,-316.42 867,-305 885,-276.13 887.43,-235.41 887.06,-211.55"/>
<polygon fill="#63b8ff" stroke="#63b8ff" points="836.66,-332.03 830.63,-340.74 840.78,-337.69 836.66,-332.03"/>
</a>
</g>
</g>
<!-- Node25 -->
<g id="Node000025" class="node">
<title>Node25</title>
<g id="a_Node000025"><a xlink:href="dfcc__contract__functions_8cpp.html" target="_top" xlink:title=" ">
<polygon fill="white" stroke="#666666" points="321.5,-305 166.5,-305 166.5,-253 321.5,-253 321.5,-305"/>
<text text-anchor="start" x="174.5" y="-293" font-family="Helvetica,sans-Serif" font-size="10.00">/home/runner/work/cbmc</text>
<text text-anchor="start" x="174.5" y="-282" font-family="Helvetica,sans-Serif" font-size="10.00">/cbmc/src/goto&#45;instrument</text>
<text text-anchor="start" x="174.5" y="-271" font-family="Helvetica,sans-Serif" font-size="10.00">/contracts/dynamic&#45;frames</text>
<text text-anchor="middle" x="244" y="-260" font-family="Helvetica,sans-Serif" font-size="10.00">/dfcc_contract_functions.cpp</text>
</a>
</g>
</g>
<!-- Node22&#45;&gt;Node25 -->
<g id="edge26_Node000022_Node000025" class="edge">
<title>Node22&#45;&gt;Node25</title>
<g id="a_edge26_Node000022_Node000025"><a xlink:title=" ">
<path fill="none" stroke="#63b8ff" d="M697.62,-358.29C606.54,-349.11 457.51,-331.59 331,-305 327.92,-304.35 324.8,-303.66 321.65,-302.92"/>
<polygon fill="#63b8ff" stroke="#63b8ff" points="697.31,-361.78 707.61,-359.29 698.01,-354.81 697.31,-361.78"/>
</a>
</g>
</g>
<!-- Node26 -->
<g id="Node000026" class="node">
<title>Node26</title>
<g id="a_Node000026"><a xlink:href="dfcc__contract__handler_8cpp.html" target="_top" xlink:title=" ">
<polygon fill="white" stroke="#666666" points="488,-305 340,-305 340,-253 488,-253 488,-305"/>
<text text-anchor="start" x="348" y="-293" font-family="Helvetica,sans-Serif" font-size="10.00">/home/runner/work/cbmc</text>
<text text-anchor="start" x="348" y="-282" font-family="Helvetica,sans-Serif" font-size="10.00">/cbmc/src/goto&#45;instrument</text>
<text text-anchor="start" x="348" y="-271" font-family="Helvetica,sans-Serif" font-size="10.00">/contracts/dynamic&#45;frames</text>
<text text-anchor="middle" x="414" y="-260" font-family="Helvetica,sans-Serif" font-size="10.00">/dfcc_contract_handler.cpp</text>
</a>
</g>
</g>
<!-- Node22&#45;&gt;Node26 -->
<g id="edge27_Node000022_Node000026" class="edge">
<title>Node22&#45;&gt;Node26</title>
<g id="a_edge27_Node000022_Node000026"><a xlink:title=" ">
<path fill="none" stroke="#63b8ff" d="M697.76,-349.85C640.8,-338.47 564.03,-322.24 497,-305 494.09,-304.25 491.12,-303.47 488.13,-302.65"/>
<polygon fill="#63b8ff" stroke="#63b8ff" points="697.31,-353.33 707.8,-351.85 698.67,-346.46 697.31,-353.33"/>
</a>
</g>
</g>
<!-- Node27 -->
<g id="Node000027" class="node">
<title>Node27</title>
<g id="a_Node000027"><a xlink:href="dfcc__lift__memory__predicates_8cpp.html" target="_top" xlink:title=" ">
<polygon fill="white" stroke="#666666" points="687.5,-305 506.5,-305 506.5,-253 687.5,-253 687.5,-305"/>
<text text-anchor="start" x="514.5" y="-293" font-family="Helvetica,sans-Serif" font-size="10.00">/home/runner/work/cbmc</text>
<text text-anchor="start" x="514.5" y="-282" font-family="Helvetica,sans-Serif" font-size="10.00">/cbmc/src/goto&#45;instrument</text>
<text text-anchor="start" x="514.5" y="-271" font-family="Helvetica,sans-Serif" font-size="10.00">/contracts/dynamic&#45;frames</text>
<text text-anchor="middle" x="597" y="-260" font-family="Helvetica,sans-Serif" font-size="10.00">/dfcc_lift_memory_predicates.cpp</text>
</a>
</g>
</g>
<!-- Node22&#45;&gt;Node27 -->
<g id="edge30_Node000022_Node000027" class="edge">
<title>Node22&#45;&gt;Node27</title>
<g id="a_edge30_Node000022_Node000027"><a xlink:title=" ">
<path fill="none" stroke="#63b8ff" d="M718.73,-336.59C696.73,-326.36 672.26,-314.99 651.07,-305.14"/>
<polygon fill="#63b8ff" stroke="#63b8ff" points="717.45,-339.85 727.99,-340.89 720.4,-333.5 717.45,-339.85"/>
</a>
</g>
</g>
<!-- Node28 -->
<g id="Node000028" class="node">
<title>Node28</title>
<g id="a_Node000028"><a xlink:href="dfcc__swap__and__wrap_8h.html" target="_top" xlink:title="Given a function_id and contract_id, swaps its body to a function with a fresh mangled name,...">
<polygon fill="white" stroke="#666666" points="148,-305 0,-305 0,-253 148,-253 148,-305"/>
<text text-anchor="start" x="8" y="-293" font-family="Helvetica,sans-Serif" font-size="10.00">/home/runner/work/cbmc</text>
<text text-anchor="start" x="8" y="-282" font-family="Helvetica,sans-Serif" font-size="10.00">/cbmc/src/goto&#45;instrument</text>
<text text-anchor="start" x="8" y="-271" font-family="Helvetica,sans-Serif" font-size="10.00">/contracts/dynamic&#45;frames</text>
<text text-anchor="middle" x="74" y="-260" font-family="Helvetica,sans-Serif" font-size="10.00">/dfcc_swap_and_wrap.h</text>
</a>
</g>
</g>
<!-- Node22&#45;&gt;Node28 -->
<g id="edge31_Node000022_Node000028" class="edge">
<title>Node22&#45;&gt;Node28</title>
<g id="a_edge31_Node000022_Node000028"><a xlink:title=" ">
<path fill="none" stroke="#63b8ff" d="M697.43,-362.98C576.58,-357.49 347.97,-342.7 157,-305 154.05,-304.42 151.05,-303.77 148.03,-303.08"/>
<polygon fill="#63b8ff" stroke="#63b8ff" points="697.57,-366.49 707.72,-363.44 697.88,-359.5 697.57,-366.49"/>
</a>
</g>
</g>
<!-- Node30 -->
<g id="Node000030" class="node">
<title>Node30</title>
<g id="a_Node000030"><a xlink:href="dfcc__wrapper__program_8cpp.html" target="_top" xlink:title=" ">
<polygon fill="white" stroke="#666666" points="858,-305 706,-305 706,-253 858,-253 858,-305"/>
<text text-anchor="start" x="714" y="-293" font-family="Helvetica,sans-Serif" font-size="10.00">/home/runner/work/cbmc</text>
<text text-anchor="start" x="714" y="-282" font-family="Helvetica,sans-Serif" font-size="10.00">/cbmc/src/goto&#45;instrument</text>
<text text-anchor="start" x="714" y="-271" font-family="Helvetica,sans-Serif" font-size="10.00">/contracts/dynamic&#45;frames</text>
<text text-anchor="middle" x="782" y="-260" font-family="Helvetica,sans-Serif" font-size="10.00">/dfcc_wrapper_program.cpp</text>
</a>
</g>
</g>
<!-- Node22&#45;&gt;Node30 -->
<g id="edge34_Node000022_Node000030" class="edge">
<title>Node22&#45;&gt;Node30</title>
<g id="a_edge34_Node000022_Node000030"><a xlink:title=" ">
<path fill="none" stroke="#63b8ff" d="M782,-330.56C782,-322.04 782,-313.1 782,-305.16"/>
<polygon fill="#63b8ff" stroke="#63b8ff" points="778.5,-330.66 782,-340.66 785.5,-330.66 778.5,-330.66"/>
</a>
</g>
</g>
<!-- Node23&#45;&gt;Node4 -->
<g id="edge25_Node000023_Node000004" class="edge">
<title>Node23&#45;&gt;Node4</title>
<g id="a_edge25_Node000023_Node000004"><a xlink:title=" ">
<path fill="none" stroke="#63b8ff" d="M986.18,-179.95C1154.16,-163.09 1490.12,-129.38 1651.86,-113.15"/>
<polygon fill="#63b8ff" stroke="#63b8ff" points="985.69,-176.48 976.09,-180.96 986.39,-183.44 985.69,-176.48"/>
</a>
</g>
</g>
<!-- Node24 -->
<g id="Node000024" class="node">
<title>Node24</title>
<g id="a_Node000024"><a xlink:href="dfcc_8cpp.html" target="_top" xlink:title=" ">
<polygon fill="white" stroke="#666666" points="960,-129 812,-129 812,-77 960,-77 960,-129"/>
<text text-anchor="start" x="820" y="-117" font-family="Helvetica,sans-Serif" font-size="10.00">/home/runner/work/cbmc</text>
<text text-anchor="start" x="820" y="-106" font-family="Helvetica,sans-Serif" font-size="10.00">/cbmc/src/goto&#45;instrument</text>
<text text-anchor="start" x="820" y="-95" font-family="Helvetica,sans-Serif" font-size="10.00">/contracts/dynamic&#45;frames</text>
<text text-anchor="middle" x="886" y="-84" font-family="Helvetica,sans-Serif" font-size="10.00">/dfcc.cpp</text>
</a>
</g>
</g>
<!-- Node23&#45;&gt;Node24 -->
<g id="edge24_Node000023_Node000024" class="edge">
<title>Node23&#45;&gt;Node24</title>
<g id="a_edge24_Node000023_Node000024"><a xlink:title=" ">
<path fill="none" stroke="#63b8ff" d="M886,-160.44C886,-150.31 886,-139.08 886,-129.32"/>
<polygon fill="#63b8ff" stroke="#63b8ff" points="882.5,-160.49 886,-170.49 889.5,-160.49 882.5,-160.49"/>
</a>
</g>
</g>
<!-- Node28&#45;&gt;Node23 -->
<g id="edge32_Node000028_Node000023" class="edge">
<title>Node28&#45;&gt;Node23</title>
<g id="a_edge32_Node000028_Node000023"><a xlink:title=" ">
<path fill="none" stroke="#63b8ff" d="M158.08,-252.97C392.09,-209.38 659.45,-197.1 795.97,-193.5"/>
<polygon fill="#63b8ff" stroke="#63b8ff" points="157.2,-249.58 148.02,-254.87 158.5,-256.45 157.2,-249.58"/>
</a>
</g>
</g>
<!-- Node29 -->
<g id="Node000029" class="node">
<title>Node29</title>
<g id="a_Node000029"><a xlink:href="dfcc__swap__and__wrap_8cpp.html" target="_top" xlink:title=" ">
<polygon fill="white" stroke="#666666" points="148,-217 0,-217 0,-165 148,-165 148,-217"/>
<text text-anchor="start" x="8" y="-205" font-family="Helvetica,sans-Serif" font-size="10.00">/home/runner/work/cbmc</text>
<text text-anchor="start" x="8" y="-194" font-family="Helvetica,sans-Serif" font-size="10.00">/cbmc/src/goto&#45;instrument</text>
<text text-anchor="start" x="8" y="-183" font-family="Helvetica,sans-Serif" font-size="10.00">/contracts/dynamic&#45;frames</text>
<text text-anchor="middle" x="74" y="-172" font-family="Helvetica,sans-Serif" font-size="10.00">/dfcc_swap_and_wrap.cpp</text>
</a>
</g>
</g>
<!-- Node28&#45;&gt;Node29 -->
<g id="edge33_Node000028_Node000029" class="edge">
<title>Node28&#45;&gt;Node29</title>
<g id="a_edge33_Node000028_Node000029"><a xlink:title=" ">
<path fill="none" stroke="#63b8ff" d="M74,-242.56C74,-234.04 74,-225.1 74,-217.16"/>
<polygon fill="#63b8ff" stroke="#63b8ff" points="70.5,-242.66 74,-252.66 77.5,-242.66 70.5,-242.66"/>
</a>
</g>
</g>
</g>
</svg>
