<?xml version="1.0" encoding="UTF-8" standalone="no"?>
<!DOCTYPE svg PUBLIC "-//W3C//DTD SVG 1.1//EN"
 "http://www.w3.org/Graphics/SVG/1.1/DTD/svg11.dtd">
<!-- Generated by graphviz version 2.43.0 (0)
 -->
<!-- Title: __CPROVER_contracts_write_set_t Pages: 1 -->
<svg width="598pt" height="175pt"
 viewBox="0.00 0.00 598.00 175.00" xmlns="http://www.w3.org/2000/svg" xmlns:xlink="http://www.w3.org/1999/xlink">
<g id="graph0" class="graph" transform="scale(1 1) rotate(0) translate(4 171)">
<title>__CPROVER_contracts_write_set_t</title>
<!-- Node1 -->
<g id="Node000001" class="node">
<title>Node1</title>
<g id="a_Node000001"><a xlink:title="Runtime representation of a write set.">
<polygon fill="#999999" stroke="#666666" points="590,-78 466,-78 466,-48 590,-48 590,-78"/>
<text text-anchor="start" x="474" y="-66" font-family="Helvetica,sans-Serif" font-size="10.00">__CPROVER_contracts</text>
<text text-anchor="middle" x="528" y="-55" font-family="Helvetica,sans-Serif" font-size="10.00">_write_set_t</text>
</a>
</g>
</g>
<!-- Node2 -->
<g id="Node000002" class="node">
<title>Node2</title>
<g id="a_Node000002"><a xlink:href="struct_____c_p_r_o_v_e_r__contracts__car__set__t.html" target="_top" xlink:title="A set of __CPROVER_contracts_car_t.">
<polygon fill="white" stroke="#666666" points="318,-167 194,-167 194,-137 318,-137 318,-167"/>
<text text-anchor="start" x="202" y="-155" font-family="Helvetica,sans-Serif" font-size="10.00">__CPROVER_contracts</text>
<text text-anchor="middle" x="256" y="-144" font-family="Helvetica,sans-Serif" font-size="10.00">_car_set_t</text>
</a>
</g>
</g>
<!-- Node2&#45;&gt;Node1 -->
<g id="edge1_Node000001_Node000002" class="edge">
<title>Node2&#45;&gt;Node1</title>
<g id="a_edge1_Node000001_Node000002"><a xlink:title=" ">
<path fill="none" stroke="#9a32cd" stroke-dasharray="5,2" d="M328.47,-153.54C365.49,-151.95 410.63,-146.2 448,-130 475.06,-118.27 499.87,-94.07 514.21,-78.19"/>
<polygon fill="#9a32cd" stroke="#9a32cd" points="328.14,-150.05 318.26,-153.88 328.38,-157.05 328.14,-150.05"/>
</a>
</g>
<text text-anchor="middle" x="392" y="-156" font-family="Helvetica,sans-Serif" font-size="10.00" fill="grey"> contract_assigns</text>
</g>
<!-- Node3 -->
<g id="Node000003" class="node">
<title>Node3</title>
<g id="a_Node000003"><a xlink:href="struct_____c_p_r_o_v_e_r__contracts__car__t.html" target="_top" xlink:title="A conditionally writable range of bytes.">
<polygon fill="white" stroke="#666666" points="124,-167 0,-167 0,-137 124,-137 124,-167"/>
<text text-anchor="start" x="8" y="-155" font-family="Helvetica,sans-Serif" font-size="10.00">__CPROVER_contracts</text>
<text text-anchor="middle" x="62" y="-144" font-family="Helvetica,sans-Serif" font-size="10.00">_car_t</text>
</a>
</g>
</g>
<!-- Node3&#45;&gt;Node2 -->
<g id="edge2_Node000002_Node000003" class="edge">
<title>Node3&#45;&gt;Node2</title>
<g id="a_edge2_Node000002_Node000003"><a xlink:title=" ">
<path fill="none" stroke="#9a32cd" stroke-dasharray="5,2" d="M134.11,-152C153.72,-152 174.82,-152 193.82,-152"/>
<polygon fill="#9a32cd" stroke="#9a32cd" points="134.01,-148.5 124.01,-152 134.01,-155.5 134.01,-148.5"/>
</a>
</g>
<text text-anchor="middle" x="159" y="-155" font-family="Helvetica,sans-Serif" font-size="10.00" fill="grey"> elems</text>
</g>
<!-- Node4 -->
<g id="Node000004" class="node">
<title>Node4</title>
<g id="a_Node000004"><a xlink:href="struct_____c_p_r_o_v_e_r__contracts__obj__set__t.html" target="_top" xlink:title="A set of pointers.">
<polygon fill="white" stroke="#666666" points="318,-78 194,-78 194,-48 318,-48 318,-78"/>
<text text-anchor="start" x="202" y="-66" font-family="Helvetica,sans-Serif" font-size="10.00">__CPROVER_contracts</text>
<text text-anchor="middle" x="256" y="-55" font-family="Helvetica,sans-Serif" font-size="10.00">_obj_set_t</text>
</a>
</g>
</g>
<!-- Node4&#45;&gt;Node1 -->
<g id="edge3_Node000001_Node000004" class="edge">
<title>Node4&#45;&gt;Node1</title>
<g id="a_edge3_Node000001_Node000004"><a xlink:title=" ">
<path fill="none" stroke="#9a32cd" stroke-dasharray="5,2" d="M328.34,-63C371.19,-63 425.12,-63 465.98,-63"/>
<polygon fill="#9a32cd" stroke="#9a32cd" points="328.27,-59.5 318.27,-63 328.27,-66.5 328.27,-59.5"/>
</a>
</g>
<text text-anchor="middle" x="392" y="-121" font-family="Helvetica,sans-Serif" font-size="10.00" fill="grey"> allocated</text>
<text text-anchor="middle" x="392" y="-110" font-family="Helvetica,sans-Serif" font-size="10.00" fill="grey">contract_frees</text>
<text text-anchor="middle" x="392" y="-99" font-family="Helvetica,sans-Serif" font-size="10.00" fill="grey">contract_frees_append</text>
<text text-anchor="middle" x="392" y="-88" font-family="Helvetica,sans-Serif" font-size="10.00" fill="grey">deallocated</text>
<text text-anchor="middle" x="392" y="-77" font-family="Helvetica,sans-Serif" font-size="10.00" fill="grey">linked_allocated</text>
<text text-anchor="middle" x="392" y="-66" font-family="Helvetica,sans-Serif" font-size="10.00" fill="grey">linked_deallocated</text>
</g>
<!-- Node5 -->
<g id="Node000005" class="node">
<title>Node5</title>
<g id="a_Node000005"><a xlink:href="struct_____c_p_r_o_v_e_r__contracts__ptr__pred__ctx__t.html" target="_top" xlink:title="Stores context information supporting the evaluation of pointer predicates in both assume and assert ...">
<polygon fill="white" stroke="#666666" points="318,-30 194,-30 194,0 318,0 318,-30"/>
<text text-anchor="start" x="202" y="-18" font-family="Helvetica,sans-Serif" font-size="10.00">__CPROVER_contracts</text>
<text text-anchor="middle" x="256" y="-7" font-family="Helvetica,sans-Serif" font-size="10.00">_ptr_pred_ctx_t</text>
</a>
</g>
</g>
<!-- Node5&#45;&gt;Node1 -->
<g id="edge4_Node000001_Node000005" class="edge">
<title>Node5&#45;&gt;Node1</title>
<g id="a_edge4_Node000001_Node000005"><a xlink:title=" ">
<path fill="none" stroke="#9a32cd" stroke-dasharray="5,2" d="M328.03,-26.98C364.01,-33.13 408.35,-40.81 448,-48 453.77,-49.05 459.77,-50.15 465.78,-51.27"/>
<polygon fill="#9a32cd" stroke="#9a32cd" points="328.56,-23.53 318.12,-25.29 327.39,-30.43 328.56,-23.53"/>
</a>
</g>
<text text-anchor="middle" x="392" y="-51" font-family="Helvetica,sans-Serif" font-size="10.00" fill="grey"> linked_ptr_pred_ctx</text>
</g>
</g>
</svg>
