<?xml version="1.0" encoding="UTF-8" standalone="no"?>
<!DOCTYPE svg PUBLIC "-//W3C//DTD SVG 1.1//EN"
 "http://www.w3.org/Graphics/SVG/1.1/DTD/svg11.dtd">
<!-- Generated by graphviz version 2.43.0 (0)
 -->
<!-- Title: /home/runner/work/cbmc/cbmc/src/util/suffix.h Pages: 1 -->
<svg width="4376pt" height="126pt"
 viewBox="0.00 0.00 4375.50 126.00" xmlns="http://www.w3.org/2000/svg" xmlns:xlink="http://www.w3.org/1999/xlink">
<g id="graph0" class="graph" transform="scale(1 1) rotate(0) translate(4 122)">
<title>/home/runner/work/cbmc/cbmc/src/util/suffix.h</title>
<!-- Node1 -->
<g id="Node000001" class="node">
<title>Node1</title>
<g id="a_Node000001"><a xlink:title=" ">
<polygon fill="#999999" stroke="#666666" points="2344,-118 2206,-118 2206,-88 2344,-88 2344,-118"/>
<text text-anchor="start" x="2214" y="-106" font-family="Helvetica,sans-Serif" font-size="10.00">/home/runner/work/cbmc</text>
<text text-anchor="middle" x="2275" y="-95" font-family="Helvetica,sans-Serif" font-size="10.00">/cbmc/src/util/suffix.h</text>
</a>
</g>
</g>
<!-- Node2 -->
<g id="Node000002" class="node">
<title>Node2</title>
<g id="a_Node000002"><a xlink:href="ci__lazy__methods_8cpp.html" target="_top" xlink:title=" ">
<polygon fill="white" stroke="#666666" points="164,-46.5 0,-46.5 0,-5.5 164,-5.5 164,-46.5"/>
<text text-anchor="start" x="8" y="-34.5" font-family="Helvetica,sans-Serif" font-size="10.00">/home/runner/work/cbmc</text>
<text text-anchor="start" x="8" y="-23.5" font-family="Helvetica,sans-Serif" font-size="10.00">/cbmc/jbmc/src/java_bytecode</text>
<text text-anchor="middle" x="82" y="-12.5" font-family="Helvetica,sans-Serif" font-size="10.00">/ci_lazy_methods.cpp</text>
</a>
</g>
</g>
<!-- Node1&#45;&gt;Node2 -->
<g id="edge1_Node000001_Node000002" class="edge">
<title>Node1&#45;&gt;Node2</title>
<g id="a_edge1_Node000001_Node000002"><a xlink:title=" ">
<path fill="none" stroke="#63b8ff" d="M2195.81,-101.26C1837.38,-97.76 375.56,-81.77 173,-52 164.08,-50.69 154.8,-48.79 145.72,-46.61"/>
<polygon fill="#63b8ff" stroke="#63b8ff" points="2195.81,-104.76 2205.84,-101.36 2195.88,-97.76 2195.81,-104.76"/>
</a>
</g>
</g>
<!-- Node3 -->
<g id="Node000003" class="node">
<title>Node3</title>
<g id="a_Node000003"><a xlink:href="java__bytecode__language_8cpp.html" target="_top" xlink:title=" ">
<polygon fill="white" stroke="#666666" points="346,-46.5 182,-46.5 182,-5.5 346,-5.5 346,-46.5"/>
<text text-anchor="start" x="190" y="-34.5" font-family="Helvetica,sans-Serif" font-size="10.00">/home/runner/work/cbmc</text>
<text text-anchor="start" x="190" y="-23.5" font-family="Helvetica,sans-Serif" font-size="10.00">/cbmc/jbmc/src/java_bytecode</text>
<text text-anchor="middle" x="264" y="-12.5" font-family="Helvetica,sans-Serif" font-size="10.00">/java_bytecode_language.cpp</text>
</a>
</g>
</g>
<!-- Node1&#45;&gt;Node3 -->
<g id="edge2_Node000001_Node000003" class="edge">
<title>Node1&#45;&gt;Node3</title>
<g id="a_edge2_Node000001_Node000003"><a xlink:title=" ">
<path fill="none" stroke="#63b8ff" d="M2195.56,-101.07C1856.41,-96.92 538.69,-79.21 355,-52 346.09,-50.68 336.8,-48.77 327.72,-46.59"/>
<polygon fill="#63b8ff" stroke="#63b8ff" points="2195.74,-104.57 2205.79,-101.19 2195.83,-97.57 2195.74,-104.57"/>
</a>
</g>
</g>
<!-- Node4 -->
<g id="Node000004" class="node">
<title>Node4</title>
<g id="a_Node000004"><a xlink:href="java__class__loader_8cpp.html" target="_top" xlink:title=" ">
<polygon fill="white" stroke="#666666" points="528,-46.5 364,-46.5 364,-5.5 528,-5.5 528,-46.5"/>
<text text-anchor="start" x="372" y="-34.5" font-family="Helvetica,sans-Serif" font-size="10.00">/home/runner/work/cbmc</text>
<text text-anchor="start" x="372" y="-23.5" font-family="Helvetica,sans-Serif" font-size="10.00">/cbmc/jbmc/src/java_bytecode</text>
<text text-anchor="middle" x="446" y="-12.5" font-family="Helvetica,sans-Serif" font-size="10.00">/java_class_loader.cpp</text>
</a>
</g>
</g>
<!-- Node1&#45;&gt;Node4 -->
<g id="edge3_Node000001_Node000004" class="edge">
<title>Node1&#45;&gt;Node4</title>
<g id="a_edge3_Node000001_Node000004"><a xlink:title=" ">
<path fill="none" stroke="#63b8ff" d="M2195.68,-102.23C1900.16,-102.72 863.39,-100.81 537,-52 528.09,-50.67 518.8,-48.75 509.72,-46.57"/>
<polygon fill="#63b8ff" stroke="#63b8ff" points="2195.88,-105.73 2205.88,-102.22 2195.87,-98.73 2195.88,-105.73"/>
</a>
</g>
</g>
<!-- Node5 -->
<g id="Node000005" class="node">
<title>Node5</title>
<g id="a_Node000005"><a xlink:href="java__class__loader__base_8cpp.html" target="_top" xlink:title=" ">
<polygon fill="white" stroke="#666666" points="710,-46.5 546,-46.5 546,-5.5 710,-5.5 710,-46.5"/>
<text text-anchor="start" x="554" y="-34.5" font-family="Helvetica,sans-Serif" font-size="10.00">/home/runner/work/cbmc</text>
<text text-anchor="start" x="554" y="-23.5" font-family="Helvetica,sans-Serif" font-size="10.00">/cbmc/jbmc/src/java_bytecode</text>
<text text-anchor="middle" x="628" y="-12.5" font-family="Helvetica,sans-Serif" font-size="10.00">/java_class_loader_base.cpp</text>
</a>
</g>
</g>
<!-- Node1&#45;&gt;Node5 -->
<g id="edge4_Node000001_Node000005" class="edge">
<title>Node1&#45;&gt;Node5</title>
<g id="a_edge4_Node000001_Node000005"><a xlink:title=" ">
<path fill="none" stroke="#63b8ff" d="M2195.36,-101.92C1919.82,-101.26 1008.08,-95.72 719,-52 710.09,-50.65 700.81,-48.73 691.73,-46.54"/>
<polygon fill="#63b8ff" stroke="#63b8ff" points="2195.66,-105.42 2205.67,-101.94 2195.68,-98.42 2195.66,-105.42"/>
</a>
</g>
</g>
<!-- Node6 -->
<g id="Node000006" class="node">
<title>Node6</title>
<g id="a_Node000006"><a xlink:href="java__entry__point_8cpp.html" target="_top" xlink:title=" ">
<polygon fill="white" stroke="#666666" points="892,-46.5 728,-46.5 728,-5.5 892,-5.5 892,-46.5"/>
<text text-anchor="start" x="736" y="-34.5" font-family="Helvetica,sans-Serif" font-size="10.00">/home/runner/work/cbmc</text>
<text text-anchor="start" x="736" y="-23.5" font-family="Helvetica,sans-Serif" font-size="10.00">/cbmc/jbmc/src/java_bytecode</text>
<text text-anchor="middle" x="810" y="-12.5" font-family="Helvetica,sans-Serif" font-size="10.00">/java_entry_point.cpp</text>
</a>
</g>
</g>
<!-- Node1&#45;&gt;Node6 -->
<g id="edge5_Node000001_Node000006" class="edge">
<title>Node1&#45;&gt;Node6</title>
<g id="a_edge5_Node000001_Node000006"><a xlink:title=" ">
<path fill="none" stroke="#63b8ff" d="M2195.37,-101.52C1941.49,-99.62 1153.06,-90.67 901,-52 892.09,-50.63 882.81,-48.7 873.73,-46.51"/>
<polygon fill="#63b8ff" stroke="#63b8ff" points="2195.6,-105.02 2205.62,-101.6 2195.65,-98.02 2195.6,-105.02"/>
</a>
</g>
</g>
<!-- Node7 -->
<g id="Node000007" class="node">
<title>Node7</title>
<g id="a_Node000007"><a xlink:href="java__enum__static__init__unwind__handler_8cpp.html" target="_top" xlink:title="Unwind loops in static initializers.">
<polygon fill="white" stroke="#666666" points="1077.5,-52 910.5,-52 910.5,0 1077.5,0 1077.5,-52"/>
<text text-anchor="start" x="918.5" y="-40" font-family="Helvetica,sans-Serif" font-size="10.00">/home/runner/work/cbmc</text>
<text text-anchor="start" x="918.5" y="-29" font-family="Helvetica,sans-Serif" font-size="10.00">/cbmc/jbmc/src/java_bytecode</text>
<text text-anchor="start" x="918.5" y="-18" font-family="Helvetica,sans-Serif" font-size="10.00">/java_enum_static_init_unwind</text>
<text text-anchor="middle" x="994" y="-7" font-family="Helvetica,sans-Serif" font-size="10.00">_handler.cpp</text>
</a>
</g>
</g>
<!-- Node1&#45;&gt;Node7 -->
<g id="edge6_Node000001_Node000007" class="edge">
<title>Node1&#45;&gt;Node7</title>
<g id="a_edge6_Node000001_Node000007"><a xlink:title=" ">
<path fill="none" stroke="#63b8ff" d="M2195.35,-100.94C1965.11,-97.5 1301.52,-84.93 1087,-52 1083.94,-51.53 1080.84,-51 1077.72,-50.42"/>
<polygon fill="#63b8ff" stroke="#63b8ff" points="2195.6,-104.44 2205.65,-101.09 2195.71,-97.44 2195.6,-104.44"/>
</a>
</g>
</g>
<!-- Node8 -->
<g id="Node000008" class="node">
<title>Node8</title>
<g id="a_Node000008"><a xlink:href="java__static__initializers_8cpp.html" target="_top" xlink:title=" ">
<polygon fill="white" stroke="#666666" points="1260,-46.5 1096,-46.5 1096,-5.5 1260,-5.5 1260,-46.5"/>
<text text-anchor="start" x="1104" y="-34.5" font-family="Helvetica,sans-Serif" font-size="10.00">/home/runner/work/cbmc</text>
<text text-anchor="start" x="1104" y="-23.5" font-family="Helvetica,sans-Serif" font-size="10.00">/cbmc/jbmc/src/java_bytecode</text>
<text text-anchor="middle" x="1178" y="-12.5" font-family="Helvetica,sans-Serif" font-size="10.00">/java_static_initializers.cpp</text>
</a>
</g>
</g>
<!-- Node1&#45;&gt;Node8 -->
<g id="edge7_Node000001_Node000008" class="edge">
<title>Node1&#45;&gt;Node8</title>
<g id="a_edge7_Node000001_Node000008"><a xlink:title=" ">
<path fill="none" stroke="#63b8ff" d="M2195.65,-100.29C1990.64,-95.53 1446.97,-80.52 1269,-52 1260.26,-50.6 1251.16,-48.68 1242.24,-46.52"/>
<polygon fill="#63b8ff" stroke="#63b8ff" points="2195.66,-103.8 2205.74,-100.53 2195.82,-96.8 2195.66,-103.8"/>
</a>
</g>
</g>
<!-- Node9 -->
<g id="Node000009" class="node">
<title>Node9</title>
<g id="a_Node000009"><a xlink:href="load__java__class_8cpp.html" target="_top" xlink:title=" ">
<polygon fill="white" stroke="#666666" points="1434,-46.5 1278,-46.5 1278,-5.5 1434,-5.5 1434,-46.5"/>
<text text-anchor="start" x="1286" y="-34.5" font-family="Helvetica,sans-Serif" font-size="10.00">/home/runner/work/cbmc</text>
<text text-anchor="start" x="1286" y="-23.5" font-family="Helvetica,sans-Serif" font-size="10.00">/cbmc/jbmc/unit/java&#45;testing</text>
<text text-anchor="middle" x="1356" y="-12.5" font-family="Helvetica,sans-Serif" font-size="10.00">&#45;utils/load_java_class.cpp</text>
</a>
</g>
</g>
<!-- Node1&#45;&gt;Node9 -->
<g id="edge8_Node000001_Node000009" class="edge">
<title>Node1&#45;&gt;Node9</title>
<g id="a_edge8_Node000001_Node000009"><a xlink:title=" ">
<path fill="none" stroke="#63b8ff" d="M2195.74,-99.46C2016.85,-93.37 1586.23,-76.57 1443,-52 1434.79,-50.59 1426.25,-48.69 1417.87,-46.57"/>
<polygon fill="#63b8ff" stroke="#63b8ff" points="2195.76,-102.96 2205.87,-99.8 2196,-95.97 2195.76,-102.96"/>
</a>
</g>
</g>
<!-- Node10 -->
<g id="Node000010" class="node">
<title>Node10</title>
<g id="a_Node000010"><a xlink:href="require__goto__statements_8cpp.html" target="_top" xlink:title=" ">
<polygon fill="white" stroke="#666666" points="1639.5,-46.5 1452.5,-46.5 1452.5,-5.5 1639.5,-5.5 1639.5,-46.5"/>
<text text-anchor="start" x="1460.5" y="-34.5" font-family="Helvetica,sans-Serif" font-size="10.00">/home/runner/work/cbmc</text>
<text text-anchor="start" x="1460.5" y="-23.5" font-family="Helvetica,sans-Serif" font-size="10.00">/cbmc/jbmc/unit/java&#45;testing</text>
<text text-anchor="middle" x="1546" y="-12.5" font-family="Helvetica,sans-Serif" font-size="10.00">&#45;utils/require_goto_statements.cpp</text>
</a>
</g>
</g>
<!-- Node1&#45;&gt;Node10 -->
<g id="edge9_Node000001_Node000010" class="edge">
<title>Node1&#45;&gt;Node10</title>
<g id="a_edge9_Node000001_Node000010"><a xlink:title=" ">
<path fill="none" stroke="#63b8ff" d="M2195.42,-99.68C2076.04,-95.29 1843.83,-83.22 1649,-52 1639.64,-50.5 1629.88,-48.59 1620.26,-46.5"/>
<polygon fill="#63b8ff" stroke="#63b8ff" points="2195.44,-103.18 2205.56,-100.04 2195.7,-96.19 2195.44,-103.18"/>
</a>
</g>
</g>
<!-- Node11 -->
<g id="Node000011" class="node">
<title>Node11</title>
<g id="a_Node000011"><a xlink:href="c__preprocess_8cpp.html" target="_top" xlink:title=" ">
<polygon fill="white" stroke="#666666" points="1840,-41 1658,-41 1658,-11 1840,-11 1840,-41"/>
<text text-anchor="start" x="1666" y="-29" font-family="Helvetica,sans-Serif" font-size="10.00">/home/runner/work/cbmc</text>
<text text-anchor="middle" x="1749" y="-18" font-family="Helvetica,sans-Serif" font-size="10.00">/cbmc/src/ansi&#45;c/c_preprocess.cpp</text>
</a>
</g>
</g>
<!-- Node1&#45;&gt;Node11 -->
<g id="edge10_Node000001_Node000011" class="edge">
<title>Node1&#45;&gt;Node11</title>
<g id="a_edge10_Node000001_Node000011"><a xlink:title=" ">
<path fill="none" stroke="#63b8ff" d="M2195.78,-95.76C2109.9,-88.29 1969.01,-73.95 1849,-52 1832.89,-49.05 1815.52,-45.02 1799.85,-41.05"/>
<polygon fill="#63b8ff" stroke="#63b8ff" points="2195.72,-99.27 2205.98,-96.64 2196.32,-92.29 2195.72,-99.27"/>
</a>
</g>
</g>
<!-- Node12 -->
<g id="Node000012" class="node">
<title>Node12</title>
<g id="a_Node000012"><a xlink:href="c__typecheck__expr_8cpp.html" target="_top" xlink:title="ANSI&#45;C Language Type Checking.">
<polygon fill="white" stroke="#666666" points="2017.5,-46.5 1858.5,-46.5 1858.5,-5.5 2017.5,-5.5 2017.5,-46.5"/>
<text text-anchor="start" x="1866.5" y="-34.5" font-family="Helvetica,sans-Serif" font-size="10.00">/home/runner/work/cbmc</text>
<text text-anchor="start" x="1866.5" y="-23.5" font-family="Helvetica,sans-Serif" font-size="10.00">/cbmc/src/ansi&#45;c/c_typecheck</text>
<text text-anchor="middle" x="1938" y="-12.5" font-family="Helvetica,sans-Serif" font-size="10.00">_expr.cpp</text>
</a>
</g>
</g>
<!-- Node1&#45;&gt;Node12 -->
<g id="edge11_Node000001_Node000012" class="edge">
<title>Node1&#45;&gt;Node12</title>
<g id="a_edge11_Node000001_Node000012"><a xlink:title=" ">
<path fill="none" stroke="#63b8ff" d="M2195.86,-87.61C2147,-78.34 2083.13,-65.52 2027,-52 2019.98,-50.31 2012.68,-48.44 2005.41,-46.51"/>
<polygon fill="#63b8ff" stroke="#63b8ff" points="2195.27,-91.06 2205.74,-89.48 2196.57,-84.18 2195.27,-91.06"/>
</a>
</g>
</g>
<!-- Node13 -->
<g id="Node000013" class="node">
<title>Node13</title>
<g id="a_Node000013"><a xlink:href="expr2c_8cpp.html" target="_top" xlink:title=" ">
<polygon fill="white" stroke="#666666" points="2188,-41 2036,-41 2036,-11 2188,-11 2188,-41"/>
<text text-anchor="start" x="2044" y="-29" font-family="Helvetica,sans-Serif" font-size="10.00">/home/runner/work/cbmc</text>
<text text-anchor="middle" x="2112" y="-18" font-family="Helvetica,sans-Serif" font-size="10.00">/cbmc/src/ansi&#45;c/expr2c.cpp</text>
</a>
</g>
</g>
<!-- Node1&#45;&gt;Node13 -->
<g id="edge12_Node000001_Node000013" class="edge">
<title>Node1&#45;&gt;Node13</title>
<g id="a_edge12_Node000001_Node000013"><a xlink:title=" ">
<path fill="none" stroke="#63b8ff" d="M2235.05,-83.62C2206.5,-70.48 2168.66,-53.07 2142.52,-41.04"/>
<polygon fill="#63b8ff" stroke="#63b8ff" points="2233.79,-86.89 2244.34,-87.89 2236.72,-80.53 2233.79,-86.89"/>
</a>
</g>
</g>
<!-- Node14 -->
<g id="Node000014" class="node">
<title>Node14</title>
<g id="a_Node000014"><a xlink:href="gcc__mode_8cpp.html" target="_top" xlink:title="GCC Mode.">
<polygon fill="white" stroke="#666666" points="2344,-46.5 2206,-46.5 2206,-5.5 2344,-5.5 2344,-46.5"/>
<text text-anchor="start" x="2214" y="-34.5" font-family="Helvetica,sans-Serif" font-size="10.00">/home/runner/work/cbmc</text>
<text text-anchor="start" x="2214" y="-23.5" font-family="Helvetica,sans-Serif" font-size="10.00">/cbmc/src/goto&#45;cc/gcc</text>
<text text-anchor="middle" x="2275" y="-12.5" font-family="Helvetica,sans-Serif" font-size="10.00">_mode.cpp</text>
</a>
</g>
</g>
<!-- Node1&#45;&gt;Node14 -->
<g id="edge13_Node000001_Node000014" class="edge">
<title>Node1&#45;&gt;Node14</title>
<g id="a_edge13_Node000001_Node000014"><a xlink:title=" ">
<path fill="none" stroke="#63b8ff" d="M2275,-77.73C2275,-67.7 2275,-56.21 2275,-46.7"/>
<polygon fill="#63b8ff" stroke="#63b8ff" points="2271.5,-77.89 2275,-87.89 2278.5,-77.89 2271.5,-77.89"/>
</a>
</g>
</g>
<!-- Node15 -->
<g id="Node000015" class="node">
<title>Node15</title>
<g id="a_Node000015"><a xlink:href="hybrid__binary_8cpp.html" target="_top" xlink:title="Create hybrid binary with goto&#45;binary section.">
<polygon fill="white" stroke="#666666" points="2500,-46.5 2362,-46.5 2362,-5.5 2500,-5.5 2500,-46.5"/>
<text text-anchor="start" x="2370" y="-34.5" font-family="Helvetica,sans-Serif" font-size="10.00">/home/runner/work/cbmc</text>
<text text-anchor="start" x="2370" y="-23.5" font-family="Helvetica,sans-Serif" font-size="10.00">/cbmc/src/goto&#45;cc/hybrid</text>
<text text-anchor="middle" x="2431" y="-12.5" font-family="Helvetica,sans-Serif" font-size="10.00">_binary.cpp</text>
</a>
</g>
</g>
<!-- Node1&#45;&gt;Node15 -->
<g id="edge14_Node000001_Node000015" class="edge">
<title>Node1&#45;&gt;Node15</title>
<g id="a_edge14_Node000001_Node000015"><a xlink:title=" ">
<path fill="none" stroke="#63b8ff" d="M2313.59,-83.45C2336.91,-72.23 2366.62,-57.95 2390.31,-46.56"/>
<polygon fill="#63b8ff" stroke="#63b8ff" points="2311.84,-80.41 2304.34,-87.89 2314.87,-86.71 2311.84,-80.41"/>
</a>
</g>
</g>
<!-- Node16 -->
<g id="Node000016" class="node">
<title>Node16</title>
<g id="a_Node000016"><a xlink:href="goto__harness__parse__options_8cpp.html" target="_top" xlink:title=" ">
<polygon fill="white" stroke="#666666" points="2697.5,-46.5 2518.5,-46.5 2518.5,-5.5 2697.5,-5.5 2697.5,-46.5"/>
<text text-anchor="start" x="2526.5" y="-34.5" font-family="Helvetica,sans-Serif" font-size="10.00">/home/runner/work/cbmc</text>
<text text-anchor="start" x="2526.5" y="-23.5" font-family="Helvetica,sans-Serif" font-size="10.00">/cbmc/src/goto&#45;harness</text>
<text text-anchor="middle" x="2608" y="-12.5" font-family="Helvetica,sans-Serif" font-size="10.00">/goto_harness_parse_options.cpp</text>
</a>
</g>
</g>
<!-- Node1&#45;&gt;Node16 -->
<g id="edge15_Node000001_Node000016" class="edge">
<title>Node1&#45;&gt;Node16</title>
<g id="a_edge15_Node000001_Node000016"><a xlink:title=" ">
<path fill="none" stroke="#63b8ff" d="M2353.8,-85.92C2399.26,-76.45 2457.46,-64.01 2509,-52 2516.42,-50.27 2524.15,-48.42 2531.86,-46.53"/>
<polygon fill="#63b8ff" stroke="#63b8ff" points="2353.08,-82.49 2344.01,-87.95 2354.51,-89.34 2353.08,-82.49"/>
</a>
</g>
</g>
<!-- Node17 -->
<g id="Node000017" class="node">
<title>Node17</title>
<g id="a_Node000017"><a xlink:href="dfcc__instrument_8cpp.html" target="_top" xlink:title=" ">
<polygon fill="white" stroke="#666666" points="2864,-52 2716,-52 2716,0 2864,0 2864,-52"/>
<text text-anchor="start" x="2724" y="-40" font-family="Helvetica,sans-Serif" font-size="10.00">/home/runner/work/cbmc</text>
<text text-anchor="start" x="2724" y="-29" font-family="Helvetica,sans-Serif" font-size="10.00">/cbmc/src/goto&#45;instrument</text>
<text text-anchor="start" x="2724" y="-18" font-family="Helvetica,sans-Serif" font-size="10.00">/contracts/dynamic&#45;frames</text>
<text text-anchor="middle" x="2790" y="-7" font-family="Helvetica,sans-Serif" font-size="10.00">/dfcc_instrument.cpp</text>
</a>
</g>
</g>
<!-- Node1&#45;&gt;Node17 -->
<g id="edge16_Node000001_Node000017" class="edge">
<title>Node1&#45;&gt;Node17</title>
<g id="a_edge16_Node000001_Node000017"><a xlink:title=" ">
<path fill="none" stroke="#63b8ff" d="M2354.14,-97.07C2441.28,-90.66 2585.21,-77.18 2707,-52 2709.95,-51.39 2712.94,-50.72 2715.96,-50.01"/>
<polygon fill="#63b8ff" stroke="#63b8ff" points="2353.78,-93.58 2344.06,-97.8 2354.29,-100.57 2353.78,-93.58"/>
</a>
</g>
</g>
<!-- Node18 -->
<g id="Node000018" class="node">
<title>Node18</title>
<g id="a_Node000018"><a xlink:href="dfcc__is__cprover__symbol_8cpp.html" target="_top" xlink:title=" ">
<polygon fill="white" stroke="#666666" points="3039.5,-52 2882.5,-52 2882.5,0 3039.5,0 3039.5,-52"/>
<text text-anchor="start" x="2890.5" y="-40" font-family="Helvetica,sans-Serif" font-size="10.00">/home/runner/work/cbmc</text>
<text text-anchor="start" x="2890.5" y="-29" font-family="Helvetica,sans-Serif" font-size="10.00">/cbmc/src/goto&#45;instrument</text>
<text text-anchor="start" x="2890.5" y="-18" font-family="Helvetica,sans-Serif" font-size="10.00">/contracts/dynamic&#45;frames</text>
<text text-anchor="middle" x="2961" y="-7" font-family="Helvetica,sans-Serif" font-size="10.00">/dfcc_is_cprover_symbol.cpp</text>
</a>
</g>
</g>
<!-- Node1&#45;&gt;Node18 -->
<g id="edge17_Node000001_Node000018" class="edge">
<title>Node1&#45;&gt;Node18</title>
<g id="a_edge17_Node000001_Node000018"><a xlink:title=" ">
<path fill="none" stroke="#63b8ff" d="M2354.31,-100.24C2469.44,-96.58 2689.19,-85.47 2873,-52 2876.13,-51.43 2879.3,-50.8 2882.49,-50.12"/>
<polygon fill="#63b8ff" stroke="#63b8ff" points="2354.06,-96.74 2344.18,-100.55 2354.28,-103.74 2354.06,-96.74"/>
</a>
</g>
</g>
<!-- Node19 -->
<g id="Node000019" class="node">
<title>Node19</title>
<g id="a_Node000019"><a xlink:href="dfcc__is__fresh_8cpp.html" target="_top" xlink:title=" ">
<polygon fill="white" stroke="#666666" points="3206,-52 3058,-52 3058,0 3206,0 3206,-52"/>
<text text-anchor="start" x="3066" y="-40" font-family="Helvetica,sans-Serif" font-size="10.00">/home/runner/work/cbmc</text>
<text text-anchor="start" x="3066" y="-29" font-family="Helvetica,sans-Serif" font-size="10.00">/cbmc/src/goto&#45;instrument</text>
<text text-anchor="start" x="3066" y="-18" font-family="Helvetica,sans-Serif" font-size="10.00">/contracts/dynamic&#45;frames</text>
<text text-anchor="middle" x="3132" y="-7" font-family="Helvetica,sans-Serif" font-size="10.00">/dfcc_is_fresh.cpp</text>
</a>
</g>
</g>
<!-- Node1&#45;&gt;Node19 -->
<g id="edge18_Node000001_Node000019" class="edge">
<title>Node1&#45;&gt;Node19</title>
<g id="a_edge18_Node000001_Node000019"><a xlink:title=" ">
<path fill="none" stroke="#63b8ff" d="M2354.52,-102.81C2495.57,-102.92 2798.36,-97.23 3049,-52 3051.96,-51.47 3054.97,-50.86 3057.99,-50.2"/>
<polygon fill="#63b8ff" stroke="#63b8ff" points="2354.24,-99.3 2344.23,-102.79 2354.23,-106.3 2354.24,-99.3"/>
</a>
</g>
</g>
<!-- Node20 -->
<g id="Node000020" class="node">
<title>Node20</title>
<g id="a_Node000020"><a xlink:href="dfcc__obeys__contract_8cpp.html" target="_top" xlink:title=" ">
<polygon fill="white" stroke="#666666" points="3372,-52 3224,-52 3224,0 3372,0 3372,-52"/>
<text text-anchor="start" x="3232" y="-40" font-family="Helvetica,sans-Serif" font-size="10.00">/home/runner/work/cbmc</text>
<text text-anchor="start" x="3232" y="-29" font-family="Helvetica,sans-Serif" font-size="10.00">/cbmc/src/goto&#45;instrument</text>
<text text-anchor="start" x="3232" y="-18" font-family="Helvetica,sans-Serif" font-size="10.00">/contracts/dynamic&#45;frames</text>
<text text-anchor="middle" x="3298" y="-7" font-family="Helvetica,sans-Serif" font-size="10.00">/dfcc_obeys_contract.cpp</text>
</a>
</g>
</g>
<!-- Node1&#45;&gt;Node20 -->
<g id="edge19_Node000001_Node000020" class="edge">
<title>Node1&#45;&gt;Node20</title>
<g id="a_edge19_Node000001_Node000020"><a xlink:title=" ">
<path fill="none" stroke="#63b8ff" d="M2354.28,-100.22C2549.7,-95.45 3050.51,-80.72 3215,-52 3217.82,-51.51 3220.67,-50.95 3223.55,-50.34"/>
<polygon fill="#63b8ff" stroke="#63b8ff" points="2354,-96.73 2344.09,-100.47 2354.17,-103.73 2354,-96.73"/>
</a>
</g>
</g>
<!-- Node21 -->
<g id="Node000021" class="node">
<title>Node21</title>
<g id="a_Node000021"><a xlink:href="dfcc__pointer__equals_8cpp.html" target="_top" xlink:title=" ">
<polygon fill="white" stroke="#666666" points="3538,-52 3390,-52 3390,0 3538,0 3538,-52"/>
<text text-anchor="start" x="3398" y="-40" font-family="Helvetica,sans-Serif" font-size="10.00">/home/runner/work/cbmc</text>
<text text-anchor="start" x="3398" y="-29" font-family="Helvetica,sans-Serif" font-size="10.00">/cbmc/src/goto&#45;instrument</text>
<text text-anchor="start" x="3398" y="-18" font-family="Helvetica,sans-Serif" font-size="10.00">/contracts/dynamic&#45;frames</text>
<text text-anchor="middle" x="3464" y="-7" font-family="Helvetica,sans-Serif" font-size="10.00">/dfcc_pointer_equals.cpp</text>
</a>
</g>
</g>
<!-- Node1&#45;&gt;Node21 -->
<g id="edge20_Node000001_Node000021" class="edge">
<title>Node1&#45;&gt;Node21</title>
<g id="a_edge20_Node000001_Node000021"><a xlink:title=" ">
<path fill="none" stroke="#63b8ff" d="M2354.5,-100.96C2573.67,-97.67 3183.41,-85.69 3381,-52 3383.82,-51.52 3386.68,-50.97 3389.55,-50.37"/>
<polygon fill="#63b8ff" stroke="#63b8ff" points="2354.3,-97.46 2344.36,-101.11 2354.41,-104.46 2354.3,-97.46"/>
</a>
</g>
</g>
<!-- Node22 -->
<g id="Node000022" class="node">
<title>Node22</title>
<g id="a_Node000022"><a xlink:href="dfcc__pointer__in__range_8cpp.html" target="_top" xlink:title=" ">
<polygon fill="white" stroke="#666666" points="3704,-52 3556,-52 3556,0 3704,0 3704,-52"/>
<text text-anchor="start" x="3564" y="-40" font-family="Helvetica,sans-Serif" font-size="10.00">/home/runner/work/cbmc</text>
<text text-anchor="start" x="3564" y="-29" font-family="Helvetica,sans-Serif" font-size="10.00">/cbmc/src/goto&#45;instrument</text>
<text text-anchor="start" x="3564" y="-18" font-family="Helvetica,sans-Serif" font-size="10.00">/contracts/dynamic&#45;frames</text>
<text text-anchor="middle" x="3630" y="-7" font-family="Helvetica,sans-Serif" font-size="10.00">/dfcc_pointer_in_range.cpp</text>
</a>
</g>
</g>
<!-- Node1&#45;&gt;Node22 -->
<g id="edge21_Node000001_Node000022" class="edge">
<title>Node1&#45;&gt;Node22</title>
<g id="a_edge21_Node000001_Node000022"><a xlink:title=" ">
<path fill="none" stroke="#63b8ff" d="M2354.49,-101.5C2595.55,-99.59 3316,-90.68 3547,-52 3549.82,-51.53 3552.68,-50.99 3555.55,-50.39"/>
<polygon fill="#63b8ff" stroke="#63b8ff" points="2354.37,-98.01 2344.4,-101.58 2354.43,-105 2354.37,-98.01"/>
</a>
</g>
</g>
<!-- Node23 -->
<g id="Node000023" class="node">
<title>Node23</title>
<g id="a_Node000023"><a xlink:href="remove__returns_8cpp.html" target="_top" xlink:title="Replace function returns by assignments to global variables.">
<polygon fill="white" stroke="#666666" points="3860,-46.5 3722,-46.5 3722,-5.5 3860,-5.5 3860,-46.5"/>
<text text-anchor="start" x="3730" y="-34.5" font-family="Helvetica,sans-Serif" font-size="10.00">/home/runner/work/cbmc</text>
<text text-anchor="start" x="3730" y="-23.5" font-family="Helvetica,sans-Serif" font-size="10.00">/cbmc/src/goto&#45;programs</text>
<text text-anchor="middle" x="3791" y="-12.5" font-family="Helvetica,sans-Serif" font-size="10.00">/remove_returns.cpp</text>
</a>
</g>
</g>
<!-- Node1&#45;&gt;Node23 -->
<g id="edge22_Node000001_Node000023" class="edge">
<title>Node1&#45;&gt;Node23</title>
<g id="a_edge22_Node000001_Node000023"><a xlink:title=" ">
<path fill="none" stroke="#63b8ff" d="M2354.37,-102.11C2615.88,-102.02 3448.75,-98.03 3713,-52 3720.71,-50.66 3728.7,-48.74 3736.5,-46.55"/>
<polygon fill="#63b8ff" stroke="#63b8ff" points="2354.2,-98.61 2344.2,-102.11 2354.2,-105.61 2354.2,-98.61"/>
</a>
</g>
</g>
<!-- Node24 -->
<g id="Node000024" class="node">
<title>Node24</title>
<g id="a_Node000024"><a xlink:href="system__library__symbols_8cpp.html" target="_top" xlink:title="Goto Programs.">
<polygon fill="white" stroke="#666666" points="4037.5,-46.5 3878.5,-46.5 3878.5,-5.5 4037.5,-5.5 4037.5,-46.5"/>
<text text-anchor="start" x="3886.5" y="-34.5" font-family="Helvetica,sans-Serif" font-size="10.00">/home/runner/work/cbmc</text>
<text text-anchor="start" x="3886.5" y="-23.5" font-family="Helvetica,sans-Serif" font-size="10.00">/cbmc/src/goto&#45;programs</text>
<text text-anchor="middle" x="3958" y="-12.5" font-family="Helvetica,sans-Serif" font-size="10.00">/system_library_symbols.cpp</text>
</a>
</g>
</g>
<!-- Node1&#45;&gt;Node24 -->
<g id="edge23_Node000001_Node000024" class="edge">
<title>Node1&#45;&gt;Node24</title>
<g id="a_edge23_Node000001_Node000024"><a xlink:title=" ">
<path fill="none" stroke="#63b8ff" d="M2354.25,-102.05C2633.7,-101.84 3572.16,-97.65 3869,-52 3877.72,-50.66 3886.81,-48.74 3895.69,-46.55"/>
<polygon fill="#63b8ff" stroke="#63b8ff" points="2354.2,-98.55 2344.2,-102.06 2354.2,-105.55 2354.2,-98.55"/>
</a>
</g>
</g>
<!-- Node25 -->
<g id="Node000025" class="node">
<title>Node25</title>
<g id="a_Node000025"><a xlink:href="expr2statement__list_8cpp.html" target="_top" xlink:title=" ">
<polygon fill="white" stroke="#666666" points="4208,-52 4056,-52 4056,0 4208,0 4208,-52"/>
<text text-anchor="start" x="4064" y="-40" font-family="Helvetica,sans-Serif" font-size="10.00">/home/runner/work/cbmc</text>
<text text-anchor="start" x="4064" y="-29" font-family="Helvetica,sans-Serif" font-size="10.00">/cbmc/src/statement&#45;list</text>
<text text-anchor="start" x="4064" y="-18" font-family="Helvetica,sans-Serif" font-size="10.00">/converters/expr2statement</text>
<text text-anchor="middle" x="4132" y="-7" font-family="Helvetica,sans-Serif" font-size="10.00">_list.cpp</text>
</a>
</g>
</g>
<!-- Node1&#45;&gt;Node25 -->
<g id="edge24_Node000001_Node000025" class="edge">
<title>Node1&#45;&gt;Node25</title>
<g id="a_edge24_Node000001_Node000025"><a xlink:title=" ">
<path fill="none" stroke="#63b8ff" d="M2354.37,-102.47C2653.72,-103.83 3714.11,-104.74 4047,-52 4049.89,-51.54 4052.81,-51.02 4055.76,-50.43"/>
<polygon fill="#63b8ff" stroke="#63b8ff" points="2354.07,-98.97 2344.05,-102.42 2354.03,-105.97 2354.07,-98.97"/>
</a>
</g>
</g>
<!-- Node26 -->
<g id="Node000026" class="node">
<title>Node26</title>
<g id="a_Node000026"><a xlink:href="symbol_8cpp.html" target="_top" xlink:title=" ">
<polygon fill="white" stroke="#666666" points="4367.5,-41 4226.5,-41 4226.5,-11 4367.5,-11 4367.5,-41"/>
<text text-anchor="start" x="4234.5" y="-29" font-family="Helvetica,sans-Serif" font-size="10.00">/home/runner/work/cbmc</text>
<text text-anchor="middle" x="4297" y="-18" font-family="Helvetica,sans-Serif" font-size="10.00">/cbmc/src/util/symbol.cpp</text>
</a>
</g>
</g>
<!-- Node1&#45;&gt;Node26 -->
<g id="edge25_Node000001_Node000026" class="edge">
<title>Node1&#45;&gt;Node26</title>
<g id="a_edge25_Node000001_Node000026"><a xlink:title=" ">
<path fill="none" stroke="#63b8ff" d="M2354.26,-101.25C2695.64,-97.87 4031.51,-82.76 4217,-52 4231.21,-49.64 4246.4,-45.37 4259.67,-41.02"/>
<polygon fill="#63b8ff" stroke="#63b8ff" points="2354.18,-97.76 2344.22,-101.35 2354.25,-104.75 2354.18,-97.76"/>
</a>
</g>
</g>
</g>
</svg>
